<svg width="72" height="72" viewBox="0 0 72 72" fill="none" xmlns="http://www.w3.org/2000/svg">
<mask id="mask0_3_3" style="mask-type:luminance" maskUnits="userSpaceOnUse" x="0" y="0" width="72" height="72">
<path d="M64 0H8C3.58172 0 0 3.58172 0 8V64C0 68.4183 3.58172 72 8 72H64C68.4183 72 72 68.4183 72 64V8C72 3.58172 68.4183 0 64 0Z" fill="white"/>
</mask>
<g mask="url(#mask0_3_3)">
<path d="M80 0H0V80H80V0Z" fill="#F8F1F1"/>
<g opacity="0.2">
<path d="M64.056 60.1154C64.0588 62.1868 62.1423 63.8807 59.7807 63.8916L36.1152 63.9769L27.3223 64.0065L7.74288 64.0742C5.38126 64.0803 3.4533 62.4023 3.445 60.331L3.32849 27.1512C3.32569 25.0798 5.24219 23.3859 7.60378 23.375L59.6361 23.1876C61.9977 23.1815 63.9257 24.8595 63.934 26.9356L64.056 60.1154Z" fill="url(#paint0_linear_3_3)"/>
<path opacity="0.7" d="M63.9447 29.6611L63.9724 39.5987L3.36696 39.8191L3.33923 29.8767L63.9447 29.6611Z" fill="#E78142"/>
<path opacity="0.32" d="M18.7677 47.9684L8.7007 48.0065C8.2174 48.0097 7.81967 47.6655 7.81682 47.2368L7.81532 46.1867C7.8125 45.7628 8.20561 45.4133 8.6944 45.4101L18.7614 45.372C19.2447 45.3688 19.6424 45.713 19.6453 46.1417L19.6468 47.1918C19.6497 47.6205 19.2565 47.9651 18.7677 47.9684Z" fill="url(#paint1_linear_3_3)"/>
<path opacity="0.4" d="M57.2133 51.295L47.1463 51.3331C46.663 51.3363 46.2653 50.9921 46.2624 50.5634L46.2457 44.7588C46.2429 44.335 46.636 43.9855 47.1248 43.9822L57.1919 43.9441C57.6752 43.9409 58.0729 44.2851 58.0757 44.7138L58.0924 50.5184C58.0898 50.9471 57.6966 51.2917 57.2133 51.295Z" fill="white"/>
<path opacity="0.32" d="M13.853 52.3129L8.71242 52.3327C8.22912 52.3359 7.83139 51.9917 7.82854 51.563L7.82704 50.5129C7.82422 50.089 8.21733 49.7395 8.70612 49.7363L13.8467 49.7165C14.33 49.7133 14.7277 50.0575 14.7306 50.4862L14.7321 51.5363C14.7295 51.965 14.3363 52.3097 13.853 52.3129Z" fill="url(#paint2_linear_3_3)"/>
</g>
<path d="M55.8568 68.2502C55.8596 70.3215 53.9431 72.0155 51.5815 72.0264L27.916 72.1117L19.1231 72.1413L-0.456341 72.209C-2.81796 72.2151 -4.74592 70.5371 -4.75422 68.4658L-4.87072 35.2859C-4.87353 33.2146 -2.95703 31.5207 -0.595439 31.5098L51.4369 31.3224C53.7985 31.3163 55.7264 32.9943 55.7348 35.0704L55.8568 68.2502Z" fill="url(#paint3_linear_3_3)"/>
<path opacity="0.7" d="M55.7455 37.7959L55.7732 47.7335L-4.83226 47.9539L-4.85999 38.0115L55.7455 37.7959Z" fill="#E78142"/>
<path opacity="0.32" d="M10.5685 56.1031L0.501484 56.1413C0.0181883 56.1445 -0.379544 55.8003 -0.382398 55.3716L-0.383896 54.3215C-0.386718 53.8976 0.0063982 53.5481 0.495186 53.5449L10.5622 53.5068C11.0455 53.5035 11.4432 53.8477 11.4461 54.2764L11.4476 55.3266C11.4504 55.7553 11.0573 56.0999 10.5685 56.1031Z" fill="url(#paint4_linear_3_3)"/>
<path opacity="0.4" d="M49.0141 59.4297L38.9471 59.4678C38.4638 59.4711 38.0661 59.1269 38.0632 58.6982L38.0465 52.8936C38.0437 52.4697 38.4368 52.1203 38.9256 52.117L48.9926 52.0789C49.4759 52.0757 49.8737 52.4199 49.8765 52.8486L49.8932 58.6531C49.8906 59.0819 49.4974 59.4265 49.0141 59.4297Z" fill="white"/>
<path opacity="0.32" d="M5.65381 60.4477L0.513203 60.4674C0.0299069 60.4706 -0.367826 60.1265 -0.370679 59.6978L-0.372177 58.6476C-0.374999 58.2237 0.0181157 57.8743 0.506904 57.871L5.64751 57.8513C6.13081 57.848 6.52854 58.1922 6.53139 58.6209L6.53289 59.6711C6.53025 60.0998 6.13711 60.4444 5.65381 60.4477Z" fill="url(#paint5_linear_3_3)"/>
</g>
<defs>
<linearGradient id="paint0_linear_3_3" x1="28.856" y1="-2.91782" x2="41.0776" y2="65.8668" gradientUnits="userSpaceOnUse">
<stop stop-color="#E9CBB8"/>
<stop offset="1" stop-color="#F4B085"/>
</linearGradient>
<linearGradient id="paint1_linear_3_3" x1="7.74871" y1="43.8964" x2="15.3702" y2="57.3464" gradientUnits="userSpaceOnUse">
<stop offset="0.5802" stop-color="#FEECEC"/>
<stop offset="1" stop-color="#FFFCFC"/>
</linearGradient>
<linearGradient id="paint2_linear_3_3" x1="7.77958" y1="48.2308" x2="16.6321" y2="57.4217" gradientUnits="userSpaceOnUse">
<stop offset="0.5802" stop-color="#FEECEC"/>
<stop offset="1" stop-color="#FFFCFC"/>
</linearGradient>
<linearGradient id="paint3_linear_3_3" x1="20.6567" y1="5.21693" x2="32.8784" y2="74.0015" gradientUnits="userSpaceOnUse">
<stop stop-color="#E9CBB8"/>
<stop offset="1" stop-color="#F4B085"/>
</linearGradient>
<linearGradient id="paint4_linear_3_3" x1="-0.450502" y1="52.0312" x2="7.17101" y2="65.4812" gradientUnits="userSpaceOnUse">
<stop offset="0.5802" stop-color="#FEECEC"/>
<stop offset="1" stop-color="#FFFCFC"/>
</linearGradient>
<linearGradient id="paint5_linear_3_3" x1="-0.419636" y1="56.3656" x2="8.43286" y2="65.5565" gradientUnits="userSpaceOnUse">
<stop offset="0.5802" stop-color="#FEECEC"/>
<stop offset="1" stop-color="#FFFCFC"/>
</linearGradient>
</defs>
</svg>
