<svg width="72" height="72" viewBox="0 0 72 72" fill="none" xmlns="http://www.w3.org/2000/svg">
<g clip-path="url(#clip0_3_19)">
<mask id="mask0_3_19" style="mask-type:luminance" maskUnits="userSpaceOnUse" x="0" y="0" width="72" height="72">
<path d="M64 0H8C3.58172 0 0 3.58172 0 8V64C0 68.4183 3.58172 72 8 72H64C68.4183 72 72 68.4183 72 64V8C72 3.58172 68.4183 0 64 0Z" fill="white"/>
</mask>
<g mask="url(#mask0_3_19)">
<path d="M80 0H0V80H80V0Z" fill="#F8F1F1"/>
<mask id="mask1_3_19" style="mask-type:luminance" maskUnits="userSpaceOnUse" x="16" y="31" width="65" height="52">
<path d="M77 31.1602H20C17.7909 31.1602 16 32.9511 16 35.1602V78.1602C16 80.3693 17.7909 82.1602 20 82.1602H77C79.2091 82.1602 81 80.3693 81 78.1602V35.1602C81 32.9511 79.2091 31.1602 77 31.1602Z" fill="white"/>
</mask>
<g mask="url(#mask1_3_19)">
<path d="M73 31.1602H20C17.7909 31.1602 16 32.9511 16 35.1602V79.1602C16 81.3693 17.7909 83.1602 20 83.1602H73C75.2091 83.1602 77 81.3693 77 79.1602V35.1602C77 32.9511 75.2091 31.1602 73 31.1602Z" fill="#F3B58F"/>
<path d="M15 31.1602H72V39.1602H15V31.1602Z" fill="#C5845C"/>
</g>
<path fill-rule="evenodd" clip-rule="evenodd" d="M40.3176 20.7656H12.2396V20.7738C12.136 20.7684 12.0319 20.7656 11.9276 20.7656C10.3555 20.7656 8.84779 21.3901 7.73615 22.5018C6.69827 23.5397 6.08502 24.9228 6.00821 26.3812H6V26.6932V39.852C6 42.0611 7.79086 43.852 10 43.852H30.078C32.2872 43.852 34.078 42.0611 34.078 39.852V31.3729H40.3176V20.7656Z" fill="#EA925C"/>
<path fill-rule="evenodd" clip-rule="evenodd" d="M34.0781 26.5749V26.2692H34.0863C34.1631 24.8398 34.7764 23.4843 35.8143 22.4671C36.9259 21.3777 38.4336 20.7656 40.0057 20.7656C41.5778 20.7656 43.0855 21.3777 44.1971 22.4671C45.235 23.4843 45.8483 24.8398 45.9251 26.2692H45.9333V26.5749V31.1612H34.0781V26.5749Z" fill="#F7DDDD"/>
<path opacity="0.3" d="M57 51.6602C57 45.8612 52.299 41.1602 46.5 41.1602C40.701 41.1602 36 45.8612 36 51.6602C36 57.4592 40.701 62.1602 46.5 62.1602C52.299 62.1602 57 57.4592 57 51.6602Z" fill="#F7DDDD"/>
<path d="M50.7354 51.5279C50.7354 49.1157 48.7799 47.1602 46.3677 47.1602C43.9555 47.1602 42 49.1157 42 51.5279C42 53.9401 43.9555 55.8956 46.3677 55.8956C48.7799 55.8956 50.7354 53.9401 50.7354 51.5279Z" fill="#F7DDDD"/>
<path d="M34.3318 63.3054L36.6944 60.0135C36.9516 59.6551 36.8696 59.1561 36.5112 58.8989L35.7675 58.3651C34.8028 57.6728 34.904 56.2072 35.9547 55.654L43.5987 51.6291C44.7635 51.0159 46.1285 51.9955 45.9202 53.2953L44.5537 61.8254C44.3658 62.9979 43.0097 63.5628 42.045 62.8705L41.3013 62.3367C40.9429 62.0795 40.4439 62.1615 40.1867 62.5199L37.8241 65.8118C37.3098 66.5286 36.3117 66.6926 35.595 66.1782L34.6981 65.5345C33.9814 65.0201 33.8174 64.0221 34.3318 63.3054Z" fill="#FAFAFA"/>
<path d="M56.7 36.5602C57.6389 36.5602 58.4 35.7991 58.4 34.8602C58.4 33.9213 57.6389 33.1602 56.7 33.1602C55.7611 33.1602 55 33.9213 55 34.8602C55 35.7991 55.7611 36.5602 56.7 36.5602Z" fill="white"/>
<path d="M62.0984 36.5602C63.0373 36.5602 63.7984 35.7991 63.7984 34.8602C63.7984 33.9213 63.0373 33.1602 62.0984 33.1602C61.1596 33.1602 60.3984 33.9213 60.3984 34.8602C60.3984 35.7991 61.1596 36.5602 62.0984 36.5602Z" fill="white"/>
<path d="M67.5008 36.5602C68.4397 36.5602 69.2008 35.7991 69.2008 34.8602C69.2008 33.9213 68.4397 33.1602 67.5008 33.1602C66.5619 33.1602 65.8008 33.9213 65.8008 34.8602C65.8008 35.7991 66.5619 36.5602 67.5008 36.5602Z" fill="white"/>
</g>
</g>
<defs>
<clipPath id="clip0_3_19">
<rect width="72" height="72" fill="white"/>
</clipPath>
</defs>
</svg>
