<svg width="72" height="72" viewBox="0 0 72 72" fill="none" xmlns="http://www.w3.org/2000/svg">
<mask id="mask0_3_40" style="mask-type:luminance" maskUnits="userSpaceOnUse" x="0" y="0" width="72" height="72">
<path d="M64 0H8C3.58172 0 0 3.58172 0 8V64C0 68.4183 3.58172 72 8 72H64C68.4183 72 72 68.4183 72 64V8C72 3.58172 68.4183 0 64 0Z" fill="white"/>
</mask>
<g mask="url(#mask0_3_40)">
<path d="M80 0H0V80H80V0Z" fill="#F8F1F1"/>
<path d="M43.104 89.1875H14.3841C10.8589 89.1875 8 86.3286 8 82.8034V24.3841C8 20.8589 10.8589 18 14.3841 18H43.0983C46.6235 18 49.4824 20.8589 49.4824 24.3841V82.7977C49.4881 86.3286 46.6292 89.1875 43.104 89.1875Z" fill="url(#paint0_linear_3_40)"/>
<path d="M44.2401 80.4788H12.7181C11.7682 80.4788 11 79.6368 11 78.5955V26.9497C11 25.9085 11.7682 25.0664 12.7181 25.0664H44.2401C45.19 25.0664 45.9582 25.9085 45.9582 26.9497V78.5898C45.9582 79.6368 45.19 80.4788 44.2401 80.4788Z" fill="url(#paint1_linear_3_40)"/>
<path d="M24.6787 56.8351L30.804 35.5556C31.0851 34.5792 32.4118 34.4415 32.8874 35.3394L38.4658 45.8706C38.7063 46.3245 38.6101 46.8836 38.2317 47.2311L26.528 57.9794C25.6875 58.7513 24.363 57.9318 24.6787 56.8351Z" fill="#E78142"/>
<path d="M24.6948 34.0088L18.5695 55.2883C18.096 56.9333 20.0827 58.1626 21.3435 57.0047L33.0472 46.2564C33.6147 45.7352 33.759 44.8966 33.3983 44.2156L27.8199 33.6844C27.1065 32.3376 25.1164 32.5442 24.6948 34.0088Z" fill="#E78142" stroke="#FEEAEB" stroke-width="1.12942"/>
<path d="M50.3637 54.9342V47.0751C50.3637 44.6604 48.4104 42.707 45.9957 42.707C43.581 42.707 41.6276 44.6604 41.6276 47.0751V62.7477L39.959 59.8547C38.9965 58.186 36.8552 57.6108 35.1866 58.5733C33.5122 59.5358 32.9427 61.6771 33.9052 63.3457L38.2676 70.8973C38.9624 72.0989 40.2437 72.8393 41.6276 72.8393H47.4536H47.744H50.3637H59.1454C61.2868 72.8393 63.0237 71.1023 63.0237 68.961V63.3286C63.0237 59.9686 60.6603 57.0698 57.3686 56.3864L50.3637 54.9342Z" fill="url(#paint2_linear_3_40)"/>
</g>
<defs>
<linearGradient id="paint0_linear_3_40" x1="25.6503" y1="-27.5572" x2="70.8505" y2="76.2263" gradientUnits="userSpaceOnUse">
<stop stop-color="#E9CBB8"/>
<stop offset="1" stop-color="#F4B085"/>
</linearGradient>
<linearGradient id="paint1_linear_3_40" x1="65.2416" y1="-169.409" x2="-12.7873" y2="60.3931" gradientUnits="userSpaceOnUse">
<stop stop-color="#F4B085"/>
<stop offset="1" stop-color="white"/>
</linearGradient>
<linearGradient id="paint2_linear_3_40" x1="42.8915" y1="38.7308" x2="59.9733" y2="72.811" gradientUnits="userSpaceOnUse">
<stop stop-color="#F4B180"/>
<stop offset="1" stop-color="#E89C68"/>
</linearGradient>
</defs>
</svg>
