<svg id="Group_1994" data-name="Group 1994" xmlns="http://www.w3.org/2000/svg" width="114.779" height="119.961" viewBox="0 0 114.779 119.961">
  <path id="Path_1207" data-name="Path 1207" d="M226.3,68.6a6.4,6.4,0,0,1,4.716,4.181,14.473,14.473,0,0,1,.582,5.8l-.009.272c-.813,23.754-.523,34.251-.156,47.541.247,8.939.527,19.071.527,35.3a.75.75,0,0,1-1.5,0c0-16.206-.28-26.327-.526-35.256-.369-13.315-.659-23.832.156-47.633l.01-.274a13.4,13.4,0,0,0-.483-5.211,4.975,4.975,0,0,0-3.561-3.241,4.01,4.01,0,0,0-3.141.885,4.766,4.766,0,0,0-1.63,2.956,4.17,4.17,0,0,0,.625,3,2.893,2.893,0,0,0,2.505,1.269,2.179,2.179,0,0,0,1.943-1.641,1.74,1.74,0,0,0-.3-1.274,1.452,1.452,0,0,0-.929-.635.75.75,0,1,1,.254-1.478,2.942,2.942,0,0,1,1.906,1.255,3.215,3.215,0,0,1,.548,2.4,3.686,3.686,0,0,1-3.3,2.864,4.42,4.42,0,0,1-3.851-1.9,5.684,5.684,0,0,1-.882-4.09,6.283,6.283,0,0,1,2.161-3.891,5.6,5.6,0,0,1,3.519-1.273A5.094,5.094,0,0,1,226.3,68.6Z" transform="translate(-219.736 -57.993)" fill="#9b751b"/>
  <path id="Path_1208" data-name="Path 1208" d="M236.281,61.222a28.494,28.494,0,0,0,3.343,1.011,4.313,4.313,0,0,1,1.183.483,1.648,1.648,0,0,1,.744,1A1.445,1.445,0,0,1,241.134,65a2,2,0,0,1-1.256.547,3.237,3.237,0,0,1-1.979-.557,7.624,7.624,0,0,1-1.544-1.405,13.335,13.335,0,0,1-2.59-4.346A5.382,5.382,0,0,0,236.281,61.222Z" transform="translate(-219.736 48.209)" fill="#9b751b"/>
  <path id="Path_1209" data-name="Path 1209" d="M221.621,62.716a4.32,4.32,0,0,1,1.182-.483,28.436,28.436,0,0,0,3.343-1.011,5.389,5.389,0,0,0,2.517-1.987,13.355,13.355,0,0,1-2.591,4.346,7.624,7.624,0,0,1-1.544,1.405,3.234,3.234,0,0,1-1.979.557A2.005,2.005,0,0,1,221.293,65a1.444,1.444,0,0,1-.416-1.276A1.644,1.644,0,0,1,221.621,62.716Z" transform="translate(-219.736 48.209)" fill="#9b751b"/>
  <path id="Path_1210" data-name="Path 1210" d="M229.977,57.23q.582-2.1,1.165-4.2a52.91,52.91,0,0,1,1.961,6.976,9.208,9.208,0,0,1-.123,4.262,2.329,2.329,0,0,1-1.573,1.715c-.642.1-1.305-.371-1.723-1.217a7.491,7.491,0,0,1-.5-3.787A21.177,21.177,0,0,1,229.977,57.23Z" transform="translate(-219.736 53.96)" fill="#9b751b"/>
  <path id="Path_1211" data-name="Path 1211" d="M318.262,173c-16.227,0-26.359-.28-35.3-.527-13.29-.368-23.786-.658-47.541.156l-.272.01a14.465,14.465,0,0,1-5.8-.583,6.4,6.4,0,0,1-4.182-4.716A5.53,5.53,0,0,1,226.373,163a6.346,6.346,0,0,1,4.817-2.231,5.5,5.5,0,0,1,3.164.952,4.413,4.413,0,0,1,1.9,3.85,3.685,3.685,0,0,1-2.863,3.3,3.227,3.227,0,0,1-2.405-.548,2.945,2.945,0,0,1-1.255-1.906.75.75,0,0,1,1.478-.254,1.462,1.462,0,0,0,.635.929,1.736,1.736,0,0,0,1.274.3,2.176,2.176,0,0,0,1.641-1.942,2.9,2.9,0,0,0-1.268-2.506,4.188,4.188,0,0,0-3-.625,4.774,4.774,0,0,0-2.956,1.631,4.009,4.009,0,0,0-.885,3.141,4.976,4.976,0,0,0,3.242,3.561,13.391,13.391,0,0,0,5.21.483l.274-.01c23.8-.815,34.318-.525,47.633-.156,8.93.246,19.051.526,35.257.526a.75.75,0,0,1,0,1.5Z" transform="translate(-219.736 -160.767)" fill="#9b751b"/>
  <path id="Path_1212" data-name="Path 1212" d="M327.749,155.291a3.233,3.233,0,0,1,.558,1.98,2.008,2.008,0,0,1-.547,1.255,1.442,1.442,0,0,1-1.277.416,1.641,1.641,0,0,1-1-.743,4.264,4.264,0,0,1-.483-1.183,28.7,28.7,0,0,0-1.012-3.343A5.389,5.389,0,0,0,322,151.156a13.345,13.345,0,0,1,4.347,2.592A7.587,7.587,0,0,1,327.749,155.291Z" transform="translate(-219.736 -137.127)" fill="#9b751b"/>
  <path id="Path_1213" data-name="Path 1213" d="M326.345,169.288A13.36,13.36,0,0,1,322,171.879a5.386,5.386,0,0,0,1.987-2.516A28.712,28.712,0,0,0,325,166.019a4.258,4.258,0,0,1,.483-1.182,1.642,1.642,0,0,1,1-.744,1.445,1.445,0,0,1,1.277.416,2.013,2.013,0,0,1,.547,1.256,3.232,3.232,0,0,1-.558,1.979A7.619,7.619,0,0,1,326.345,169.288Z" transform="translate(-219.736 -162.951)" fill="#9b751b"/>
  <path id="Path_1214" data-name="Path 1214" d="M332.788,163.285a9.239,9.239,0,0,1-4.263.122,52.92,52.92,0,0,1-6.976-1.962l4.2-1.164a21.186,21.186,0,0,1,3.753-.8,7.5,7.5,0,0,1,3.788.5c.845.418,1.314,1.081,1.216,1.723A2.33,2.33,0,0,1,332.788,163.285Z" transform="translate(-219.736 -150.039)" fill="#9b751b"/>
</svg>
