<svg width="40" height="40" viewBox="0 0 40 40" fill="none" xmlns="http://www.w3.org/2000/svg">
        <rect x="0.5" y="0.5" width="39" height="39" rx="19.5" stroke="#FF6400"></rect>
        <path d="M27.5 12H12.5C11.8372 12.0007 11.2017 12.2643 10.733 12.733C10.2643 13.2017 10.0007 13.8372 10 14.5V25.2143C10.0007 25.8771 10.2643 26.5126 10.733 26.9813C11.2017 27.45 11.8372 27.7136 12.5 27.7143H27.5C28.1628 27.7136 28.7983 27.45 29.267 26.9813C29.7357 26.5126 29.9993 25.8771 30 25.2143V14.5C29.9993 13.8372 29.7357 13.2017 29.267 12.733C28.7983 12.2643 28.1628 12.0007 27.5 12ZM26.867 16.1353L20.4384 21.1353C20.313 21.2327 20.1588 21.2856 20 21.2856C19.8412 21.2856 19.687 21.2327 19.5616 21.1353L13.133 16.1353C13.0575 16.0782 12.9941 16.0067 12.9464 15.925C12.8987 15.8432 12.8678 15.7528 12.8554 15.659C12.843 15.5651 12.8493 15.4698 12.8741 15.3784C12.8988 15.2871 12.9415 15.2015 12.9996 15.1268C13.0577 15.0521 13.1301 14.9897 13.2125 14.9432C13.2949 14.8967 13.3858 14.867 13.4798 14.8559C13.5738 14.8448 13.669 14.8525 13.76 14.8785C13.851 14.9046 13.9359 14.9484 14.0098 15.0076L20 19.6665L25.9902 15.0076C26.14 14.8945 26.3283 14.8449 26.5143 14.8695C26.7004 14.8941 26.8693 14.991 26.9845 15.1392C27.0997 15.2873 27.152 15.4749 27.13 15.6613C27.108 15.8477 27.0135 16.018 26.867 16.1353Z" fill="#FF6400"></path>
      </svg>