<svg width="40" height="40" viewBox="0 0 40 40" fill="none" xmlns="http://www.w3.org/2000/svg">
        <rect x="0.5" y="0.5" width="39" height="39" rx="19.5" stroke="#FF6400"></rect>
        <path d="M20.75 30.5C18.8125 30.5 16.9922 30.0312 15.2891 29.0938L8 32L10.9062 24.7109C9.96875 23.0078 9.5 21.1875 9.5 19.25C9.5 17.7188 9.79688 16.2617 10.3906 14.8789C10.9844 13.4961 11.7852 12.3008 12.793 11.293C13.8008 10.2852 14.9961 9.48438 16.3789 8.89062C17.7617 8.29688 19.2188 8 20.75 8C22.2812 8 23.7383 8.29688 25.1211 8.89062C26.5039 9.48438 27.6992 10.2852 28.707 11.293C29.7148 12.3008 30.5156 13.4961 31.1094 14.8789C31.7031 16.2617 32 17.7188 32 19.25C32 20.7812 31.7031 22.2383 31.1094 23.6211C30.5156 25.0039 29.7148 26.1992 28.707 27.207C27.6992 28.2148 26.5039 29.0156 25.1211 29.6094C23.7383 30.2031 22.2812 30.5 20.75 30.5ZM24.5 21.5H23L22.1562 22.25C21.4531 22.0625 20.5898 21.457 19.5664 20.4336C18.543 19.4102 17.9375 18.5469 17.75 17.8438L18.5 17V15.5C18.5 15.2344 18.4062 14.9688 18.2188 14.7031C18.0312 14.4375 17.8242 14.2461 17.5977 14.1289C17.3711 14.0117 17.2109 14 17.1172 14.0938L16.0156 15.1953C15.4062 15.8047 15.3164 16.7539 15.7461 18.043C16.1758 19.332 16.9961 20.582 18.207 21.793C19.418 23.0039 20.668 23.8242 21.957 24.2539C23.2461 24.6836 24.1953 24.5938 24.8047 23.9844L25.9062 22.8828C26 22.7891 25.9883 22.6289 25.8711 22.4023C25.7539 22.1758 25.5625 21.9688 25.2969 21.7812C25.0312 21.5938 24.7656 21.5 24.5 21.5Z" fill="#FF6400"></path>
      </svg>