<svg width="40" height="40" viewBox="0 0 40 40" fill="none" xmlns="http://www.w3.org/2000/svg">
        <rect x="0.5" y="0.5" width="39" height="39" rx="19.5" stroke="#FF6400"></rect>
        <path d="M29.7221 26.6307L26.9023 29.4279C26.4861 29.8547 25.9344 29.9993 25.3971 30C23.0209 29.9288 20.7748 28.7616 18.9307 27.5631C15.9037 25.3609 13.1262 22.6303 11.3831 19.3305C10.7145 17.9468 9.93004 16.1813 10.005 14.6368C10.0117 14.0558 10.1682 13.4856 10.5774 13.1111L13.3972 10.2927C13.9827 9.7947 14.549 9.9669 14.9237 10.547L17.1922 14.8487C17.431 15.3583 17.294 15.9044 16.9378 16.2685L15.8989 17.3069C15.8348 17.3947 15.7939 17.4947 15.7929 17.6035C16.1913 19.1456 17.3981 20.5669 18.4642 21.545C19.5304 22.5231 20.6763 23.8483 22.1639 24.162C22.3477 24.2133 22.5729 24.2313 22.7045 24.109L23.913 22.88C24.3296 22.5642 24.9311 22.4099 25.3758 22.6681H25.397L29.4889 25.0838C30.0896 25.4603 30.1522 26.188 29.7221 26.6307Z" fill="#FF6400"></path>
      </svg>