<svg xmlns="http://www.w3.org/2000/svg" width="40" height="40" viewBox="0 0 40 40">
  <g id="Group_74" data-name="Group 74" transform="translate(-1335 -497)">
    <circle id="Ellipse_16" data-name="Ellipse 16" cx="20" cy="20" r="20" transform="translate(1335 497)" fill="#ff6400"/>
    <path id="Icon_awesome-user-alt" data-name="Icon awesome-user-alt" d="M12,12.375a6.488,6.488,0,0,0,6.752-6.189A6.488,6.488,0,0,0,12,0a6.487,6.487,0,0,0-6.75,6.189A6.489,6.489,0,0,0,12,12.375Zm6,1.375H15.417a8.836,8.836,0,0,1-6.835,0H6a5.766,5.766,0,0,0-6,5.5v.688A2.163,2.163,0,0,0,2.251,22h19.5A2.163,2.163,0,0,0,24,19.938V19.25A5.766,5.766,0,0,0,18,13.75Z" transform="translate(1343 504.875)" fill="#fff"/>
  </g>
</svg>
