<svg width="120" height="36" viewBox="0 0 120 36" fill="none" xmlns="http://www.w3.org/2000/svg">
<path d="M115.731 35.5556H4.20356C1.88622 35.5556 0 33.664 0 31.3484V4.20089C0 1.88444 1.88622 0 4.20356 0H115.731C118.047 0 120 1.88444 120 4.20089V31.3484C120 33.664 118.047 35.5556 115.731 35.5556Z" fill="#A6A6A6"/>
<path d="M119.139 31.3492C119.139 33.2301 117.616 34.7537 115.731 34.7537H4.20346C2.3199 34.7537 0.791016 33.2301 0.791016 31.3492V4.1999C0.791016 2.3199 2.3199 0.791016 4.20346 0.791016H115.731C117.616 0.791016 119.139 2.3199 119.139 4.1999L119.139 31.3492Z" fill="black"/>
<path d="M26.7805 17.5858C26.7547 14.7209 29.1262 13.3271 29.2347 13.2622C27.8916 11.304 25.8098 11.0364 25.0782 11.0151C23.3298 10.8311 21.6338 12.0613 20.7431 12.0613C19.8347 12.0613 18.4631 11.0329 16.9849 11.0631C15.0827 11.0924 13.3031 12.1938 12.3271 13.904C10.3129 17.3911 11.8151 22.5155 13.7449 25.3342C14.7102 26.7147 15.8382 28.256 17.3147 28.2018C18.7591 28.1422 19.2987 27.2809 21.0418 27.2809C22.7689 27.2809 23.2756 28.2018 24.7814 28.1671C26.3316 28.1422 27.3076 26.7804 28.2391 25.3875C29.3547 23.8053 29.8027 22.2471 29.8205 22.1671C29.784 22.1547 26.8098 21.0195 26.7805 17.5858Z" fill="white"/>
<path d="M23.936 9.16103C24.7129 8.18948 25.2445 6.8677 25.0969 5.52637C23.9725 5.57614 22.5663 6.30415 21.7565 7.25437C21.04 8.0917 20.4 9.46414 20.5654 10.7548C21.8285 10.849 23.1254 10.1175 23.936 9.16103Z" fill="white"/>
<path d="M47.6844 28.0037H45.6658L44.56 24.529H40.7164L39.6631 28.0037H37.6978L41.5058 16.1743H43.8578L47.6844 28.0037ZM44.2266 23.0712L43.2266 19.9823C43.1209 19.6668 42.9226 18.9237 42.6302 17.7539H42.5946C42.4782 18.257 42.2906 19.0001 42.0329 19.9823L41.0506 23.0712H44.2266Z" fill="white"/>
<path d="M57.4772 23.6337C57.4772 25.0844 57.0852 26.231 56.3012 27.0728C55.5989 27.8221 54.7269 28.1964 53.686 28.1964C52.5625 28.1964 51.7554 27.7928 51.2638 26.9857H51.2283V31.479H49.3332V22.2817C49.3332 21.3697 49.3092 20.4337 49.2629 19.4737H50.9296L51.0354 20.8257H51.0709C51.7029 19.807 52.662 19.2986 53.9492 19.2986C54.9554 19.2986 55.7954 19.6959 56.4674 20.4915C57.1412 21.2879 57.4772 22.335 57.4772 23.6337ZM55.5465 23.703C55.5465 22.8728 55.3598 22.1884 54.9847 21.6497C54.5749 21.0879 54.0247 20.807 53.3349 20.807C52.8674 20.807 52.4425 20.9635 52.0629 21.2719C51.6825 21.583 51.4336 21.9893 51.3172 22.4924C51.2585 22.727 51.2292 22.919 51.2292 23.0701V24.4924C51.2292 25.1128 51.4194 25.6364 51.7998 26.0639C52.1803 26.4915 52.6745 26.7048 53.2825 26.7048C53.9963 26.7048 54.5518 26.4293 54.9492 25.8799C55.3474 25.3297 55.5465 24.6044 55.5465 23.703Z" fill="white"/>
<path d="M67.288 23.6337C67.288 25.0844 66.896 26.231 66.1112 27.0728C65.4098 27.8221 64.5378 28.1964 63.4969 28.1964C62.3734 28.1964 61.5663 27.7928 61.0756 26.9857H61.04V31.479H59.1449V22.2817C59.1449 21.3697 59.1209 20.4337 59.0747 19.4737H60.7414L60.8472 20.8257H60.8827C61.5138 19.807 62.4729 19.2986 63.7609 19.2986C64.7663 19.2986 65.6063 19.6959 66.28 20.4915C66.9512 21.2879 67.288 22.335 67.288 23.6337ZM65.3574 23.703C65.3574 22.8728 65.1698 22.1884 64.7947 21.6497C64.3849 21.0879 63.8365 20.807 63.1458 20.807C62.6774 20.807 62.2534 20.9635 61.8729 21.2719C61.4925 21.583 61.2445 21.9893 61.128 22.4924C61.0703 22.727 61.04 22.919 61.04 23.0701V24.4924C61.04 25.1128 61.2303 25.6364 61.6089 26.0639C61.9894 26.4906 62.4836 26.7048 63.0934 26.7048C63.8072 26.7048 64.3627 26.4293 64.76 25.8799C65.1583 25.3297 65.3574 24.6044 65.3574 23.703Z" fill="white"/>
<path d="M78.2569 24.6863C78.2569 25.6925 77.9076 26.5112 77.2062 27.1432C76.4356 27.8339 75.3627 28.1788 73.984 28.1788C72.7111 28.1788 71.6907 27.9334 70.9182 27.4419L71.3573 25.8623C72.1893 26.3654 73.1022 26.6179 74.0969 26.6179C74.8107 26.6179 75.3662 26.4561 75.7653 26.1343C76.1627 25.8125 76.3609 25.3805 76.3609 24.8419C76.3609 24.3619 76.1973 23.9574 75.8693 23.6294C75.5431 23.3014 74.9982 22.9965 74.2373 22.7148C72.1662 21.9423 71.1316 20.8108 71.1316 19.3228C71.1316 18.3503 71.4942 17.553 72.2204 16.9325C72.944 16.3112 73.9093 16.001 75.1164 16.001C76.1929 16.001 77.0871 16.1885 77.8009 16.5628L77.3271 18.1076C76.6604 17.745 75.9067 17.5636 75.0631 17.5636C74.3964 17.5636 73.8756 17.7281 73.5022 18.0552C73.1867 18.3476 73.0284 18.7041 73.0284 19.1263C73.0284 19.5939 73.2089 19.9805 73.5715 20.2845C73.8871 20.5654 74.4604 20.8694 75.2924 21.1974C76.3102 21.6072 77.0578 22.0863 77.5387 22.6356C78.0178 23.1832 78.2569 23.8685 78.2569 24.6863Z" fill="white"/>
<path d="M84.5225 20.8962H82.4337V25.0375C82.4337 26.0909 82.8017 26.6171 83.5394 26.6171C83.8781 26.6171 84.159 26.5877 84.3812 26.5291L84.4337 27.9682C84.0603 28.1077 83.5688 28.178 82.9599 28.178C82.2114 28.178 81.6265 27.9495 81.2043 27.4935C80.7839 27.0366 80.5723 26.2704 80.5723 25.194V20.8944H79.3279V19.4722H80.5723V17.9104L82.4337 17.3486V19.4722H84.5225V20.8962Z" fill="white"/>
<path d="M93.9474 23.6685C93.9474 24.9796 93.5723 26.056 92.8239 26.8978C92.039 27.7644 90.9972 28.1965 89.6986 28.1965C88.447 28.1965 87.4505 27.7813 86.7074 26.9511C85.9643 26.1209 85.5928 25.0729 85.5928 23.8098C85.5928 22.488 85.975 21.4053 86.7421 20.5636C87.5074 19.7209 88.5403 19.2996 89.839 19.2996C91.0906 19.2996 92.0977 19.7147 92.8577 20.5458C93.5848 21.352 93.9474 22.3929 93.9474 23.6685ZM91.9812 23.7298C91.9812 22.9431 91.8132 22.2685 91.4728 21.7058C91.0754 21.0249 90.5074 20.6853 89.7714 20.6853C89.0097 20.6853 88.431 21.0258 88.0337 21.7058C87.6932 22.2693 87.5252 22.9547 87.5252 23.7653C87.5252 24.552 87.6932 25.2267 88.0337 25.7884C88.4434 26.4693 89.0159 26.8089 89.7546 26.8089C90.4781 26.8089 91.0461 26.4622 91.4559 25.7707C91.8052 25.1973 91.9812 24.5156 91.9812 23.7298Z" fill="white"/>
<path d="M100.108 21.1404C99.9199 21.1057 99.7199 21.0879 99.5102 21.0879C98.8435 21.0879 98.3279 21.3395 97.9653 21.8435C97.6497 22.2879 97.4915 22.8497 97.4915 23.5279V28.0035H95.5973L95.6151 22.1599C95.6151 21.1768 95.5911 20.2817 95.5439 19.4746H97.1946L97.2639 21.1066H97.3164C97.5164 20.5457 97.8319 20.0941 98.2639 19.7555C98.6862 19.4506 99.1422 19.2986 99.6337 19.2986C99.8088 19.2986 99.9671 19.311 100.108 19.3333V21.1404Z" fill="white"/>
<path d="M108.583 23.3349C108.583 23.6745 108.561 23.9607 108.514 24.1945H102.828C102.851 25.0371 103.125 25.6816 103.653 26.126C104.132 26.5234 104.752 26.7225 105.513 26.7225C106.355 26.7225 107.123 26.5882 107.813 26.3189L108.11 27.6345C107.303 27.9865 106.35 28.1616 105.251 28.1616C103.928 28.1616 102.89 27.7722 102.134 26.9945C101.38 26.2167 101.003 25.1722 101.003 23.862C101.003 22.5758 101.354 21.5047 102.057 20.6505C102.793 19.7385 103.788 19.2825 105.039 19.2825C106.268 19.2825 107.199 19.7385 107.831 20.6505C108.332 21.3749 108.583 22.2709 108.583 23.3349ZM106.776 22.8434C106.788 22.2816 106.665 21.7962 106.408 21.3865C106.08 20.8594 105.576 20.5962 104.898 20.5962C104.278 20.5962 103.774 20.8531 103.389 21.3687C103.074 21.7785 102.886 22.27 102.828 22.8425L106.776 22.8434Z" fill="white"/>
<path d="M43.6001 8.89676C43.6001 9.94298 43.2864 10.7305 42.6597 11.2594C42.0792 11.7474 41.2544 11.9919 40.1859 11.9919C39.6561 11.9919 39.2028 11.9688 38.8232 11.9225V6.20609C39.3184 6.12609 39.8517 6.08521 40.4277 6.08521C41.4455 6.08521 42.2126 6.30654 42.7299 6.7492C43.3095 7.24965 43.6001 7.9652 43.6001 8.89676ZM42.6179 8.92254C42.6179 8.24432 42.4384 7.72432 42.0792 7.36165C41.7201 6.99987 41.1957 6.81854 40.505 6.81854C40.2117 6.81854 39.9619 6.83809 39.7548 6.87898V11.2248C39.8695 11.2425 40.0792 11.2505 40.3841 11.2505C41.097 11.2505 41.6472 11.0523 42.0348 10.6559C42.4224 10.2594 42.6179 9.68165 42.6179 8.92254Z" fill="white"/>
<path d="M48.8081 9.81057C48.8081 10.455 48.6241 10.983 48.2561 11.3972C47.8703 11.823 47.3592 12.0355 46.721 12.0355C46.1059 12.0355 45.6161 11.8319 45.2508 11.423C44.8863 11.015 44.7041 10.5004 44.7041 9.87991C44.7041 9.23102 44.8917 8.69857 45.2685 8.28524C45.6454 7.87191 46.1521 7.66479 46.7903 7.66479C47.4054 7.66479 47.8997 7.86835 48.2739 8.27635C48.6294 8.67279 48.8081 9.18479 48.8081 9.81057ZM47.8419 9.84079C47.8419 9.45413 47.7583 9.12257 47.5921 8.84613C47.3965 8.51191 47.1183 8.34479 46.7565 8.34479C46.3823 8.34479 46.0979 8.51191 45.9023 8.84613C45.7352 9.12257 45.6525 9.45946 45.6525 9.85768C45.6525 10.2444 45.7361 10.5759 45.9023 10.8524C46.1041 11.1866 46.385 11.3537 46.7477 11.3537C47.1032 11.3537 47.3823 11.1839 47.5832 10.8435C47.7557 10.5617 47.8419 10.2275 47.8419 9.84079Z" fill="white"/>
<path d="M55.7911 7.75024L54.48 11.9405H53.6266L53.0835 10.1209C52.9457 9.66669 52.8337 9.21513 52.7466 8.76713H52.7297C52.6489 9.22758 52.5369 9.67824 52.3929 10.1209L51.816 11.9405H50.9529L49.72 7.75024H50.6773L51.1511 9.74224C51.2657 10.2134 51.36 10.6622 51.4355 11.0871H51.4524C51.5217 10.7369 51.6364 10.2907 51.7982 9.75113L52.3929 7.75113H53.152L53.7217 9.70847C53.8595 10.1858 53.9715 10.6454 54.0577 11.088H54.0835C54.1466 10.6569 54.2417 10.1974 54.368 9.70847L54.8764 7.75113H55.7911V7.75024Z" fill="white"/>
<path d="M60.6204 11.9403H59.6888V9.54033C59.6888 8.80078 59.4079 8.431 58.8444 8.431C58.5679 8.431 58.3448 8.53233 58.1715 8.73589C58 8.93944 57.9128 9.17944 57.9128 9.45411V11.9394H56.9813V8.94744C56.9813 8.57944 56.9697 8.18033 56.9475 7.74833H57.7662L57.8097 8.40344H57.8355C57.944 8.19989 58.1057 8.03189 58.3182 7.89767C58.5706 7.74122 58.8533 7.66211 59.1626 7.66211C59.5537 7.66211 59.8791 7.78833 60.1377 8.04166C60.4595 8.35189 60.6204 8.815 60.6204 9.43011V11.9403Z" fill="white"/>
<path d="M63.1895 11.9403H62.2588V5.82739H63.1895V11.9403Z" fill="white"/>
<path d="M68.6738 9.81057C68.6738 10.455 68.4898 10.983 68.1218 11.3972C67.736 11.823 67.2241 12.0355 66.5867 12.0355C65.9707 12.0355 65.4809 11.8319 65.1165 11.423C64.752 11.015 64.5698 10.5004 64.5698 9.87991C64.5698 9.23102 64.7574 8.69857 65.1343 8.28524C65.5112 7.87191 66.0178 7.66479 66.6552 7.66479C67.2712 7.66479 67.7645 7.86835 68.1396 8.27635C68.4952 8.67279 68.6738 9.18479 68.6738 9.81057ZM67.7067 9.84079C67.7067 9.45413 67.6232 9.12257 67.4569 8.84613C67.2623 8.51191 66.9832 8.34479 66.6223 8.34479C66.2472 8.34479 65.9627 8.51191 65.768 8.84613C65.6009 9.12257 65.5183 9.45946 65.5183 9.85768C65.5183 10.2444 65.6018 10.5759 65.768 10.8524C65.9698 11.1866 66.2507 11.3537 66.6134 11.3537C66.9689 11.3537 67.2472 11.1839 67.448 10.8435C67.6214 10.5617 67.7067 10.2275 67.7067 9.84079Z" fill="white"/>
<path d="M73.1822 11.9404H72.3457L72.2764 11.4577H72.2506C71.9644 11.8426 71.5564 12.0355 71.0266 12.0355C70.6311 12.0355 70.3111 11.9084 70.0702 11.6559C69.8515 11.4266 69.7422 11.1412 69.7422 10.8026C69.7422 10.2906 69.9555 9.90035 70.3849 9.63013C70.8133 9.35991 71.416 9.22746 72.192 9.23368V9.15546C72.192 8.60346 71.9022 8.32791 71.3217 8.32791C70.9084 8.32791 70.544 8.43191 70.2293 8.63813L70.04 8.02657C70.4293 7.78568 70.9102 7.66479 71.4773 7.66479C72.5724 7.66479 73.1217 8.24257 73.1217 9.39813V10.9412C73.1217 11.3599 73.1422 11.6932 73.1822 11.9404ZM72.2151 10.5004V9.85413C71.1875 9.83635 70.6737 10.1181 70.6737 10.6986C70.6737 10.9172 70.7324 11.0808 70.8524 11.1901C70.9724 11.2995 71.1253 11.3537 71.3075 11.3537C71.512 11.3537 71.7031 11.2888 71.8773 11.1599C72.0524 11.0301 72.16 10.8657 72.2 10.6639C72.2097 10.6186 72.2151 10.5635 72.2151 10.5004Z" fill="white"/>
<path d="M78.4756 11.9403H77.6489L77.6054 11.2674H77.5796C77.3156 11.7794 76.8658 12.0354 76.2338 12.0354C75.7289 12.0354 75.3085 11.8372 74.9751 11.4407C74.6418 11.0443 74.4756 10.5296 74.4756 9.89762C74.4756 9.21939 74.656 8.67006 75.0187 8.2505C75.3698 7.85939 75.8 7.66384 76.312 7.66384C76.8747 7.66384 77.2685 7.85317 77.4925 8.23273H77.5102V5.82739H78.4427V10.8114C78.4427 11.2194 78.4534 11.5954 78.4756 11.9403ZM77.5102 10.1732V9.4745C77.5102 9.35362 77.5014 9.25584 77.4845 9.18117C77.432 8.95717 77.3191 8.76873 77.1476 8.61673C76.9742 8.46473 76.7654 8.38828 76.5245 8.38828C76.1769 8.38828 75.9049 8.52606 75.7049 8.8025C75.5067 9.07895 75.4063 9.43184 75.4063 9.86295C75.4063 10.2772 75.5014 10.6132 75.6925 10.8718C75.8942 11.1474 76.1662 11.2852 76.5067 11.2852C76.8125 11.2852 77.0569 11.1705 77.2427 10.9403C77.4223 10.7278 77.5102 10.4718 77.5102 10.1732Z" fill="white"/>
<path d="M86.4429 9.81057C86.4429 10.455 86.2589 10.983 85.8909 11.3972C85.5051 11.823 84.9949 12.0355 84.3558 12.0355C83.7415 12.0355 83.2518 11.8319 82.8855 11.423C82.5211 11.015 82.3389 10.5004 82.3389 9.87991C82.3389 9.23102 82.5264 8.69857 82.9033 8.28524C83.2802 7.87191 83.7869 7.66479 84.426 7.66479C85.0402 7.66479 85.5353 7.86835 85.9087 8.27635C86.2642 8.67279 86.4429 9.18479 86.4429 9.81057ZM85.4775 9.84079C85.4775 9.45413 85.394 9.12257 85.2278 8.84613C85.0313 8.51191 84.754 8.34479 84.3913 8.34479C84.018 8.34479 83.7335 8.51191 83.5371 8.84613C83.37 9.12257 83.2873 9.45946 83.2873 9.85768C83.2873 10.2444 83.3709 10.5759 83.5371 10.8524C83.7389 11.1866 84.0198 11.3537 84.3824 11.3537C84.738 11.3537 85.018 11.1839 85.2189 10.8435C85.3904 10.5617 85.4775 10.2275 85.4775 9.84079Z" fill="white"/>
<path d="M91.4515 11.9403H90.5209V9.54033C90.5209 8.80078 90.24 8.431 89.6755 8.431C89.3991 8.431 89.176 8.53233 89.0035 8.73589C88.8311 8.93944 88.7449 9.17944 88.7449 9.45411V11.9394H87.8124V8.94744C87.8124 8.57944 87.8018 8.18033 87.7795 7.74833H88.5973L88.6409 8.40344H88.6667C88.776 8.19989 88.9378 8.03189 89.1493 7.89767C89.4027 7.74122 89.6844 7.66211 89.9947 7.66211C90.3849 7.66211 90.7102 7.78833 90.9689 8.04166C91.2915 8.35189 91.4515 8.815 91.4515 9.43011V11.9403Z" fill="white"/>
<path d="M97.7209 8.44788H96.6952V10.4834C96.6952 11.0008 96.8774 11.2594 97.2383 11.2594C97.4054 11.2594 97.5441 11.2452 97.6534 11.2159L97.6774 11.9225C97.4934 11.9919 97.2516 12.0265 96.9538 12.0265C96.5858 12.0265 96.2996 11.9145 96.0925 11.6905C95.8845 11.4665 95.7814 11.0897 95.7814 10.5608V8.44788H95.1689V7.7501H95.7814V6.9821L96.6943 6.70654V7.74921H97.7201L97.7209 8.44788Z" fill="white"/>
<path d="M102.653 11.9403H101.72V9.55806C101.72 8.80695 101.439 8.43095 100.877 8.43095C100.445 8.43095 100.149 8.64873 99.9877 9.08428C99.9601 9.17584 99.9441 9.28784 99.9441 9.41939V11.9394H99.0134V5.82739H99.9441V8.35273H99.9619C100.255 7.89317 100.676 7.66384 101.221 7.66384C101.606 7.66384 101.925 7.79006 102.179 8.04339C102.494 8.35895 102.653 8.82828 102.653 9.44873V11.9403Z" fill="white"/>
<path d="M107.74 9.6472C107.74 9.81432 107.727 9.95476 107.705 10.0694H104.911C104.924 10.4836 105.057 10.7992 105.316 11.0179C105.552 11.2134 105.857 11.3112 106.23 11.3112C106.644 11.3112 107.021 11.2454 107.36 11.113L107.506 11.7601C107.109 11.9325 106.641 12.0188 106.1 12.0188C105.451 12.0188 104.94 11.8276 104.57 11.4454C104.198 11.0632 104.014 10.5503 104.014 9.90676C104.014 9.27476 104.186 8.74854 104.532 8.32898C104.893 7.88098 105.381 7.65698 105.997 7.65698C106.599 7.65698 107.057 7.88098 107.366 8.32898C107.616 8.68454 107.74 9.12454 107.74 9.6472ZM106.851 9.40632C106.858 9.12987 106.797 8.89165 106.67 8.69076C106.509 8.43209 106.262 8.30232 105.929 8.30232C105.625 8.30232 105.377 8.42854 105.188 8.68187C105.033 8.88365 104.942 9.12454 104.911 9.40632H106.851Z" fill="white"/>
</svg>
