<svg width="31" height="22" viewBox="0 0 31 22" fill="none" xmlns="http://www.w3.org/2000/svg">
<path d="M7.09237 0.902C8.94037 0.902 10.4804 1.532 11.7124 2.792C12.9164 4.08 13.5184 5.914 13.5184 8.294C13.5184 10.478 13.0984 12.41 12.2584 14.09C11.4184 15.77 10.3684 17.198 9.10837 18.374C7.84837 19.55 6.57437 20.46 5.28637 21.104L3.06037 18.584C3.76037 18.304 4.55837 17.772 5.45437 16.988C6.32237 16.232 7.09237 15.35 7.76437 14.342C8.40837 13.362 8.75837 12.368 8.81437 11.36C8.56237 11.696 8.12837 11.976 7.51237 12.2C6.89637 12.424 6.25237 12.536 5.58037 12.536C4.32037 12.536 3.20037 12.074 2.22037 11.15C1.21237 10.254 0.708374 8.98 0.708374 7.328C0.708374 5.368 1.32437 3.8 2.55637 2.624C3.76037 1.476 5.27237 0.902 7.09237 0.902ZM23.8084 0.902C25.6564 0.902 27.1964 1.532 28.4284 2.792C29.6324 4.08 30.2344 5.914 30.2344 8.294C30.2344 10.478 29.8144 12.41 28.9744 14.09C28.1344 15.77 27.0844 17.198 25.8244 18.374C24.5644 19.55 23.2904 20.46 22.0024 21.104L19.7764 18.584C20.4764 18.304 21.2744 17.772 22.1704 16.988C23.0384 16.232 23.8084 15.35 24.4804 14.342C25.1244 13.362 25.4744 12.368 25.5304 11.36C25.2784 11.696 24.8444 11.976 24.2284 12.2C23.6124 12.424 22.9684 12.536 22.2964 12.536C21.0364 12.536 19.9164 12.074 18.9364 11.15C17.9284 10.254 17.4244 8.98 17.4244 7.328C17.4244 5.368 18.0404 3.8 19.2724 2.624C20.4764 1.476 21.9884 0.902 23.8084 0.902Z" fill="#FFCD00"/>
</svg>
