<svg width="120" height="36" viewBox="0 0 120 36" fill="none" xmlns="http://www.w3.org/2000/svg">
<path d="M115.559 35.557H4.44792C2.00343 35.557 0.00341797 33.557 0.00341797 31.1125V4.44548C0.00341797 2.00099 2.00343 0.000976562 4.44792 0.000976562H115.559C118.003 0.000976562 120.003 2.00099 120.003 4.44548V31.1125C120.003 33.557 118.003 35.557 115.559 35.557Z" fill="#100F0D"/>
<path d="M115.559 0.000976562H4.44792C2.00343 0.000976562 0.00341797 2.00099 0.00341797 4.44548V31.1125C0.00341797 33.557 2.00343 35.557 4.44792 35.557H115.559C118.003 35.557 120.003 33.557 120.003 31.1125V4.44548C120.003 2.00099 118.003 0.000976562 115.559 0.000976562ZM115.559 0.711737C117.618 0.711737 119.292 2.3868 119.292 4.44548V31.1125C119.292 33.1712 117.618 34.8463 115.559 34.8463H4.44792C2.38924 34.8463 0.714912 33.1712 0.714912 31.1125V4.44548C0.714912 2.3868 2.38924 0.711737 4.44792 0.711737H115.559Z" fill="#A2A2A1"/>
<path d="M95.0582 26.668H96.7168V15.5549H95.0582V26.668ZM109.998 19.5584L108.097 24.3762H108.04L106.067 19.5584H104.28L107.24 26.292L105.552 30.0378H107.282L111.843 19.5588L109.998 19.5584ZM100.591 25.4057C100.049 25.4057 99.2906 25.1338 99.2906 24.4619C99.2906 23.6042 100.235 23.2754 101.049 23.2754C101.778 23.2754 102.122 23.4324 102.564 23.647C102.436 24.6765 101.549 25.4057 100.591 25.4057ZM100.792 19.3153C99.591 19.3153 98.3475 19.8445 97.8328 21.0168L99.3048 21.6314C99.6195 21.0168 100.205 20.8168 100.82 20.8168C101.678 20.8168 102.55 21.3311 102.564 22.2464V22.3606C102.264 22.189 101.62 21.9318 100.835 21.9318C99.247 21.9318 97.6319 22.8036 97.6319 24.4335C97.6319 25.9203 98.9333 26.8783 100.391 26.8783C101.506 26.8783 102.122 26.3779 102.507 25.7915H102.564V26.6498H104.166V22.389C104.166 20.4161 102.692 19.3153 100.792 19.3153ZM90.5409 20.9112H88.1817V17.1022H90.5409C91.7809 17.1022 92.4849 18.1286 92.4849 19.0067C92.4849 19.8678 91.7809 20.9112 90.5409 20.9112ZM90.4982 15.5552H86.5238V26.6683H88.1818V22.4582H90.4983C92.3366 22.4582 94.1437 21.1276 94.1437 19.0071C94.1437 16.8869 92.3365 15.5552 90.4982 15.5552ZM68.8261 25.4076C67.6801 25.4076 66.7211 24.4478 66.7211 23.1308C66.7211 21.7985 67.6801 20.8252 68.8261 20.8252C69.9574 20.8252 70.8452 21.7986 70.8452 23.1308C70.8452 24.4478 69.9574 25.4076 68.8261 25.4076ZM70.7306 20.1805H70.6733C70.3011 19.7367 69.5847 19.3357 68.683 19.3357C66.7923 19.3357 65.0596 20.9971 65.0596 23.1308C65.0596 25.25 66.7923 26.8968 68.683 26.8968C69.5847 26.8968 70.301 26.4958 70.6733 26.0378H70.7306V26.5816C70.7306 28.0285 69.9574 28.8014 68.7114 28.8014C67.6951 28.8014 67.0649 28.0711 66.8069 27.4555L65.3608 28.0568C65.7757 29.0589 66.8781 30.2909 68.7115 30.2909C70.6595 30.2909 72.3063 29.145 72.3063 26.3523V19.5647H70.7307L70.7306 20.1805ZM73.4522 26.6677H75.1126V15.5546H73.4522V26.6677ZM77.5617 23.0017C77.5189 21.5409 78.6936 20.7964 79.5381 20.7964C80.1971 20.7964 80.755 21.1259 80.9419 21.5982L77.5617 23.0017ZM82.7169 21.7412C82.402 20.8968 81.4426 19.3357 79.4807 19.3357C77.5328 19.3357 75.9147 20.8679 75.9147 23.1163C75.9147 25.2358 77.5189 26.8969 79.6665 26.8969C81.3992 26.8969 82.402 25.8375 82.8176 25.2215L81.5287 24.3621C81.0989 24.9924 80.512 25.4077 79.6665 25.4077C78.8221 25.4077 78.2204 25.0209 77.8343 24.2619L82.8888 22.1712L82.7169 21.7412ZM42.4427 20.4957V22.0996H46.2805C46.1659 23.0018 45.8652 23.6604 45.4069 24.1187C44.8482 24.6771 43.9746 25.293 42.4426 25.293C40.0797 25.293 38.2325 23.3885 38.2325 21.0256C38.2325 18.6627 40.0797 16.7579 42.4426 16.7579C43.7172 16.7579 44.6478 17.2593 45.3353 17.9037L46.4669 16.7721C45.5071 15.8557 44.2328 15.1541 42.4426 15.1541C39.2057 15.1541 36.4849 17.7891 36.4849 21.0256C36.4849 24.2618 39.2057 26.8969 42.4426 26.8969C44.1895 26.8969 45.5072 26.324 46.5381 25.25C47.5979 24.1903 47.9274 22.701 47.9274 21.4979C47.9274 21.126 47.8985 20.7823 47.8412 20.4957H42.4427ZM52.2911 25.4076C51.1452 25.4076 50.157 24.4624 50.157 23.1163C50.157 21.7558 51.1452 20.8253 52.2911 20.8253C53.4365 20.8253 54.4247 21.7558 54.4247 23.1163C54.4247 24.4624 53.4365 25.4076 52.2911 25.4076ZM52.2911 19.3357C50.1997 19.3357 48.4958 20.9252 48.4958 23.1163C48.4958 25.293 50.1997 26.8969 52.2911 26.8969C54.3817 26.8969 56.0859 25.293 56.0859 23.1163C56.0859 20.9252 54.3817 19.3357 52.2911 19.3357ZM60.5694 25.4076C59.4243 25.4076 58.4358 24.4624 58.4358 23.1163C58.4358 21.7558 59.4244 20.8253 60.5694 20.8253C61.7153 20.8253 62.7031 21.7558 62.7031 23.1163C62.7031 24.4624 61.7153 25.4076 60.5694 25.4076ZM60.5694 19.3357C58.4788 19.3357 56.7749 20.9252 56.7749 23.1163C56.7749 25.293 58.4788 26.8969 60.5694 26.8969C62.6608 26.8969 64.3647 25.293 64.3647 23.1163C64.3647 20.9252 62.6608 19.3357 60.5694 19.3357Z" fill="white"/>
<path d="M18.4164 17.267L8.95337 27.3114C8.95373 27.3134 8.95444 27.3152 8.95477 27.3173C9.24499 28.408 10.2412 29.2111 11.4235 29.2111C11.8962 29.2111 12.3399 29.0833 12.7204 28.859L12.7507 28.8413L23.4031 22.6944L18.4164 17.267Z" fill="#EB3131"/>
<path d="M27.991 15.5568L27.982 15.5506L23.383 12.8845L18.2017 17.4951L23.401 22.6938L27.9757 20.0542C28.7777 19.6212 29.3222 18.7757 29.3222 17.8006C29.3222 16.8326 28.7851 15.9912 27.991 15.5568Z" fill="#F6B60B"/>
<path d="M8.95227 8.24731C8.89538 8.4571 8.86548 8.67683 8.86548 8.90501V26.6544C8.86548 26.8821 8.89503 27.1026 8.95263 27.3116L18.7423 17.5239L8.95227 8.24731Z" fill="#5778C5"/>
<path d="M18.4866 17.7796L23.385 12.8827L12.7446 6.71349C12.3578 6.48184 11.9064 6.34814 11.4234 6.34814C10.2411 6.34814 9.24351 7.15271 8.95324 8.24468C8.95288 8.24575 8.95288 8.24648 8.95288 8.24742L18.4866 17.7796Z" fill="#3BAD49"/>
<path d="M42.1314 8.69519H39.5383V9.33689H41.4814C41.4286 9.86054 41.2203 10.2717 40.8689 10.5703C40.5175 10.8689 40.0688 11.0189 39.5383 11.0189C38.9563 11.0189 38.4632 10.8161 38.0592 10.4134C37.6632 10.0023 37.4619 9.49388 37.4619 8.88139C37.4619 8.26894 37.6632 7.76055 38.0592 7.34946C38.4633 6.9467 38.9563 6.74528 39.5383 6.74528C39.837 6.74528 40.1217 6.79666 40.3827 6.90919C40.6439 7.02164 40.8536 7.17862 41.0175 7.38004L41.5106 6.88697C41.2869 6.63275 41.0036 6.43834 40.6521 6.29666C40.3007 6.15496 39.9341 6.08696 39.5382 6.08696C38.7618 6.08696 38.1036 6.35638 37.566 6.89393C37.0285 7.43278 36.759 8.09671 36.759 8.8814C36.759 9.6661 37.0285 10.3315 37.566 10.869C38.1035 11.4064 38.7618 11.676 39.5382 11.676C40.3535 11.676 41.0035 11.4148 41.5035 10.8842C41.9438 10.4426 42.1688 9.84537 42.1688 9.09814C42.1688 8.97174 42.1536 8.83688 42.1314 8.69519ZM43.1359 6.20629V11.5564H46.2595V10.8994H43.8234V9.20225H46.0207V8.56055H43.8234V6.86468H46.2595V6.20627L43.1359 6.20629ZM50.6396 6.8647V6.20629H46.9631V6.8647H48.4576V11.5564H49.1451V6.8647H50.6396ZM53.968 6.20629H53.2805V11.5564H53.968V6.20629ZM58.5059 6.8647V6.20629H54.8295V6.8647H56.3239V11.5564H57.0114V6.8647H58.5059ZM65.4435 6.90221C64.913 6.35634 64.263 6.08691 63.4865 6.08691C62.7088 6.08691 62.0588 6.35634 61.5282 6.89388C60.9976 7.42447 60.7366 8.08973 60.7366 8.88136C60.7366 9.67299 60.9976 10.3383 61.5282 10.869C62.0588 11.4064 62.7088 11.6759 63.4865 11.6759C64.256 11.6759 64.9129 11.4064 65.4435 10.869C65.9741 10.3384 66.2352 9.67305 66.2352 8.88136C66.2352 8.09666 65.9741 7.4327 65.4435 6.90221ZM62.0213 7.34942C62.4171 6.94665 62.9032 6.74523 63.4865 6.74523C64.0685 6.74523 64.5546 6.94666 64.9435 7.34942C65.3393 7.74525 65.5338 8.26185 65.5338 8.88134C65.5338 9.50224 65.3393 10.0175 64.9435 10.4133C64.5546 10.8161 64.0685 11.0189 63.4865 11.0189C62.9032 11.0189 62.4171 10.8161 62.0213 10.4133C61.6337 10.0092 61.4393 9.50223 61.4393 8.88134C61.4393 8.26187 61.6337 7.75357 62.0213 7.34942ZM67.8686 8.22445L67.8394 7.19241H67.8686L70.5881 11.5564H71.3061V6.20624H70.6186V9.33683L70.6477 10.3689H70.6186L68.0186 6.20624H67.1811V11.5564H67.8686V8.22445Z" fill="white" stroke="white" stroke-width="0.26666" stroke-miterlimit="10"/>
</svg>
