<svg width="30" height="21" viewBox="0 0 30 21" fill="none" xmlns="http://www.w3.org/2000/svg">
<path d="M23.142 20.202C21.294 20.202 19.754 19.572 18.522 18.312C17.318 17.024 16.716 15.19 16.716 12.81C16.716 10.626 17.136 8.694 17.976 7.014C18.816 5.334 19.866 3.906 21.126 2.73C22.386 1.554 23.66 0.644 24.948 0L27.174 2.52C26.474 2.8 25.676 3.332 24.78 4.116C23.912 4.872 23.142 5.754 22.47 6.762C21.826 7.742 21.476 8.736 21.42 9.744C21.672 9.408 22.106 9.128 22.722 8.904C23.338 8.68 23.982 8.568 24.654 8.568C25.914 8.568 27.034 9.03 28.014 9.954C29.022 10.85 29.526 12.124 29.526 13.776C29.526 15.736 28.91 17.304 27.678 18.48C26.474 19.628 24.962 20.202 23.142 20.202ZM6.426 20.202C4.578 20.202 3.038 19.572 1.806 18.312C0.602 17.024 0 15.19 0 12.81C0 10.626 0.42 8.694 1.26 7.014C2.1 5.334 3.15 3.906 4.41 2.73C5.67 1.554 6.944 0.644 8.232 0L10.458 2.52C9.758 2.8 8.96 3.332 8.064 4.116C7.196 4.872 6.426 5.754 5.754 6.762C5.11 7.742 4.76 8.736 4.704 9.744C4.956 9.408 5.39 9.128 6.006 8.904C6.622 8.68 7.266 8.568 7.938 8.568C9.198 8.568 10.318 9.03 11.298 9.954C12.306 10.85 12.81 12.124 12.81 13.776C12.81 15.736 12.194 17.304 10.962 18.48C9.758 19.628 8.246 20.202 6.426 20.202Z" fill="#FFCD00"/>
</svg>
