<?xml version="1.0" encoding="UTF-8"?>
<svg id="Layer_2" data-name="Layer 2" xmlns="http://www.w3.org/2000/svg" viewBox="0 0 219.11 206.45">
  <defs>
    <style>
      .cls-1 {
        fill:rgb(255, 219, 208);
        stroke-width: 0px;
      }
    </style>
  </defs>
  <g id="OBJECTS">
    <g>
      <path class="cls-1" d="M91.63,62.27c-.4-4.5-.94-8.6-1.1-12.71-.25-6.74,2.11-12.82,5.58-18.42,2.69-4.34,5.63-8.58,8.85-12.55,4.9-6.06,1.27-12.78-4.23-15.33-1.75-.81-3.7.15-4.13,2.05-.24,1.09-.25,2.22,1.28,2.48,1.25.21,2.06.96,1.8,2.22-.13.64-.81,1.39-1.43,1.64-1.14.46-2.07-.24-2.8-1.13-2.37-2.93-1.5-7.63,1.73-9.54,1.73-1.02,3.41-.77,5.05.15.94.53,1.86,1.11,2.73,1.76.87.64,1.66,1.39,2.68,2.25.88-.97,1.72-2,2.67-2.92,2.87-2.78,7.22-2.97,9.9-.5,1.74,1.6,2.24,5.17,1.04,7.43-.96,1.82-3.37,2.73-5.66,2.05-.64-.19-1.39-.51-1.73-1.01-.38-.57-.67-1.56-.42-2.08.23-.47,1.24-.58,1.93-.8.14-.05.35.14.54.22.99.4,1.94.58,2.48-.66.59-1.34.1-3.01-1.17-3.57-1.61-.71-3.27-.69-4.78.35-2.35,1.63-3.46,4.23-2.66,7,1.25,4.31,3.29,8.24,6.62,11.35,1.65,1.55,3.44,2.95,5.18,4.41,5.29,4.41,8.98,9.95,11.14,16.43,1.27,3.81,2.17,7.76,3.02,11.69.72,3.31.58,6.68-.4,9.95-.37,1.22-.31,2.12,1.13,2.67,1.74-1.43,3.51-2.94,5.34-4.39,7.59-5.97,16.26-8.15,25.79-7.28,4.61.42,9.23.71,13.82,1.3,7.38.95,11.21-6.27,10.34-11.87-.23-1.46-1.76-2.4-3.35-2.2-1.43.18-2.02.92-1.87,2.65.09,1.08.05,2.12-1.05,2.45-.63.19-1.81.02-2.1-.41-.47-.71-.76-1.87-.54-2.67,1.12-3.98,6.3-5.67,9.65-3.27,1.54,1.1,1.95,2.71,1.89,4.43-.08,2.14-.35,4.27-.55,6.56.85.13,1.71.25,2.57.4,2.35.41,4.23,1.58,5.55,3.58,1.3,1.96,1.57,4.12.51,6.18-1.11,2.14-3.14,3.29-5.51,3.51-2.78.25-5.48-3.29-4.55-5.91.22-.61,1.01-1.36,1.58-1.4.52-.03,1.12.8,1.64,1.29.11.1.08.38.1.57.1,1.09.45,1.96,1.76,1.85,1.45-.12,2.58-1.37,2.58-2.76,0-1.54-1.36-3.49-2.92-4.11-2.74-1.09-5.32-.79-7.35,1.4-3.04,3.29-5.46,6.98-6.41,11.46-.36,1.74-.76,3.47-.99,5.23-.81,6.33-3.36,11.96-7.11,17.01-3.06,4.11-6.45,7.96-10.72,10.93-2.61,1.82-5.24,3.53-8.38,4.25-1.32.3-2.21.85-1.82,2.04,4,1.82,7.86,3.32,11.47,5.27,6.1,3.29,10.3,8.53,13.44,14.57,2.31,4.45,4.49,9,6.3,13.67,2.88,7.41,10.88,7.1,15.46,3.7,1.76-1.31,1.29-4.18-.74-5.08-.89-.39-1.47-.1-2.05.58-.73.86-1.75,1.15-2.6.4-.49-.43-.97-1.52-.75-1.98.36-.77,1.19-1.62,1.99-1.84,3.89-1.09,8.18,2.64,7.75,6.63-.2,1.83-1.29,3.1-2.85,3.9-1.91.98-3.9,1.81-6.02,2.78.32.88.66,1.77.97,2.67.71,2.05.62,4.06-.23,6.06-.98,2.3-2.77,3.74-5.17,3.87-2.35.13-4.43-.99-5.81-2.98-1.54-2.23-.18-6.14,2.42-6.84.71-.19,1.85.04,2.36.52.74.7.25,1.56-.46,2.29-1.62,1.66-1.66,2.11-.6,3.05,1.26,1.11,2.76,1.07,3.97-.11,2.69-2.62,1.52-7.75-2.39-9.24-2.15-.82-4.59-.99-6.93-1.19-3.71-.33-7.25.63-10.64,2.07-5.92,2.52-12.07,3.66-18.48,3.08-7.24-.65-14.2-2.3-20.48-6.13-1.41-.86-2.66-2.03-3.89-3.16-.96-.89-1.79-1.15-2.47-.37.41,4.38.97,8.47,1.13,12.58.27,6.74-2.08,12.83-5.54,18.43-2.68,4.35-5.6,8.6-8.84,12.55-5.13,6.26-1.08,12.98,4.29,15.54,2.15,1.02,4.54-1.59,4.06-3.15-.18-.6-.88-1.21-1.49-1.48-.99-.44-1.88-.96-1.69-2.09.11-.64.8-1.61,1.32-1.67.85-.1,2,.17,2.63.73,2.07,1.83,2.2,5.93.46,8.16-1.97,2.52-4.41,3.02-7.32,1.28-1.76-1.05-3.35-2.37-5.16-3.67-.92,1.01-1.81,2.17-2.88,3.13-2.79,2.52-6.81,2.59-9.45.26-1.95-1.73-1.96-3.99-1.58-6.28.33-1.98,1.71-3.05,3.61-3.44,1.64-.34,3.21-.02,4.32,1.26.4.47.56,1.58.27,2.09-.26.46-1.32.76-1.94.65-2.53-.43-2.88-.38-3.11,1.11-.3,1.88.75,3.16,2.77,3.4,3.52.41,6.71-3.11,6.14-6.96-.21-1.43-.82-2.83-1.4-4.18-1.45-3.38-3.36-6.43-6.25-8.83-3.94-3.27-8.03-6.4-10.83-10.82-5-7.92-7.97-16.47-7.92-25.92,0-1.75.38-3.53.8-5.24.31-1.23-.09-1.88-1.18-2.35-1.95,1.58-3.9,3.21-5.9,4.77-7.03,5.47-15.1,7.49-23.86,6.99-4.91-.28-9.84-.62-14.7-1.34-7.87-1.16-11.5,5.92-10.93,11.58.23,2.26,3.53,3.14,4.79,1.8.42-.45.32-1.37.51-2.06.22-.79.28-1.79.81-2.26.4-.36,1.75-.33,2.07.05.55.65.96,1.75.85,2.58-.33,2.53-3.75,4.95-6.37,4.74-3.22-.26-5.19-2.08-5.25-5.29-.04-2.22.36-4.46.58-6.8-1.12-.23-2.26-.48-3.41-.71-2.18-.44-3.73-1.77-4.86-3.58-2.53-4.04.34-9.3,5.13-9.43,2.75-.08,5.34,2.93,4.63,5.6-.18.7-.99,1.54-1.67,1.72-.99.26-1.59-.59-1.69-1.59-.13-1.3-.4-2.44-2.09-2.1-1.7.34-2.6,1.88-2.16,3.59.67,2.63,3.9,4.37,6.85,3.69,1.82-.42,3.17-1.52,4.31-2.94,3.29-4.07,5.48-8.6,6.08-13.87.72-6.38,2.84-12.28,6.56-17.54,4.13-5.85,8.95-11.03,15.31-14.53,1.54-.85,3.28-1.32,4.93-1.95q1.3-.5,1.36-2.01c-3.86-1.76-7.71-3.28-11.32-5.23-6.1-3.3-10.29-8.53-13.42-14.58-2.3-4.46-4.49-9-6.31-13.67-2.87-7.34-10.82-7.12-15.46-3.66-1.65,1.23-1.34,3.98.49,4.94.9.47,1.65.31,2.35-.49.75-.85,1.81-1.04,2.63-.3.48.43.92,1.55.68,2-.39.77-1.25,1.59-2.06,1.8-3.77.95-7.64-2.25-7.69-6.14-.02-2.01,1.02-3.4,2.66-4.29,1.98-1.07,4.06-1.94,6.11-2.9-.43-1.48-1.02-2.96-1.26-4.49-.56-3.49,1.36-6.76,4.43-7.83,2.31-.81,5.89.57,7.23,2.78,1.12,1.86.55,4.58-1.34,6.11-.44.36-1.03.79-1.53.77-.7-.02-1.68-.26-1.98-.75-.27-.45-.01-1.52.38-2.03,1.62-2.07,1.72-2.33.55-3.3-1.46-1.21-3.07-.93-4.3.76-1.92,2.62-.96,6.73,2.17,8.35,1.44.74,3.16,1.05,4.8,1.26,3.94.52,7.85.38,11.62-1.14,2.01-.81,4.05-1.55,6.11-2.21,7.88-2.53,15.77-1.9,23.63.08,5.6,1.41,10.89,3.52,15.03,7.78.87.89,1.64.96,2.34.3ZM161.82,75.83c-4.3,5.38-8.31,11.01-14.31,14.62-2.43,1.46-5.03,2.83-7.74,3.58-2.07.57-3.15,1.62-3.97,3.15,2.54.83,4.92,1.63,7.32,2.38.53.17,1.13.25,1.69.2,3.89-.38,7.47-1.69,10.78-3.76,4.59-2.85,8.34-6.61,11.57-10.88,2.27-3,4.18-6.2,4.35-10.16.05-1.26.43-2.52.71-3.77.44-1.96.94-3.9,1.47-6.13-1.75.18-3.21.31-4.66.48-1.96.23-3.91.7-5.87.67-5.37-.08-10.28,1.62-15.14,3.57-1.17.47-2.38,1.09-3.28,1.94-2.37,2.22-4.68,4.52-6.8,6.97-1.12,1.28-1.8,2.95-2.67,4.44.14.18.28.36.43.54,1.03-.17,2.06-.32,3.08-.52,2.21-.43,2.94.3,2.38,2.51-.3,1.18-.73,2.33-1.25,3.93,8.72-2.99,15.47-8.08,21.89-13.75ZM110.98,177.37c.6-1.29,1.23-2.6,1.83-3.93,1.16-2.61,2.3-5.22,3.45-7.83,2.82-6.33,4.49-12.84,2.72-19.78-.97-3.79-2.04-7.59-5.09-10.91-.53,1.55-.96,2.81-1.39,4.08-.42,1.26-1.25,1.47-2.28.78-.64-.43-1.17-1.03-1.72-1.59-.56-.57-1.09-1.17-1.96-2.11-1.73,9.13-.72,17.53,1.01,25.93-2.28-5.68-4.66-11.29-5.4-17.39-.46-3.84-.51-7.72.7-11.42.65-1.99,0-3.24-1-4.55-1.43,1.48-2.53,3.13-4.06,4.09-2.24,1.4-3.21,3.47-3.66,5.75-.56,2.88-.99,5.85-.9,8.77.16,5.27,1.6,10.32,3.78,15.11,1.21,2.67,2.52,5.33,4.91,7.28,2.96,2.42,5.82,4.96,9.04,7.73ZM91.62,83.74c-.55-2.64-1.05-5.11-1.6-7.58-.12-.55-.36-1.11-.69-1.56-2.23-3.07-5.05-5.49-8.38-7.3-4.92-2.66-10.21-4.09-15.73-4.75-3.65-.44-7.25-.45-10.67,1.33-1.21.63-2.59.93-3.9,1.34-1.83.57-3.67,1.09-5.75,1.7.98,1.41,1.79,2.63,2.64,3.81,1.61,2.23,3.31,4.4,4.88,6.66,5.49,7.96,12.77,12.97,22.58,13.79,1.59.13,3.21-.05,5.45-.11-1.08-1.3-1.67-2.05-2.31-2.76-1.7-1.91-1.38-2.98,1.13-3.59,1.08-.26,2.19-.41,3.85-.72-7.12-6.09-14.88-9.45-23.08-12.07.42-.2.8-.32,1.14-.24,5.45,1.21,11.15,1.61,16.24,4.09,3.24,1.58,6.41,3.5,9.18,5.78,1.61,1.33,3.02,2.27,5.02,2.17ZM117.57,77.71c1.97-1.79,3.79-3.4,5.57-5.07.48-.45,1.02-.97,1.21-1.56.69-2.15,1.5-4.3,1.8-6.51,1.09-8.01-1-15.44-4.56-22.52-.83-1.65-1.84-3.34-3.17-4.59-3.05-2.87-6.35-5.49-9.75-8.39-.59,1.23-1.23,2.51-1.82,3.83-1.17,2.6-2.24,5.25-3.46,7.83-4.23,8.99-4.7,18-.23,27.03.62,1.24,1.53,2.34,2.54,3.86.76-2.11,1.32-3.66,1.89-5.25,2.85-.38,3.41,2.48,5.57,3.73,1.58-8.79.69-17.14-.95-25.52,2.19,5.91,4.91,11.66,5.32,18.01.21,3.21.09,6.55-.57,9.68-.43,2.08-.5,3.76.6,5.43ZM83.88,109.08c-1.88-.47-3.86-.59-5.44-1.45-2.84-1.54-5.52-.9-8.22-.02-8.47,2.75-14.35,8.72-19.19,15.87-.98,1.45-1.95,3.06-2.34,4.73-1,4.26-1.67,8.59-2.5,13.07,3.55-.37,7.14-.96,10.74-1.06,5.13-.15,9.87-1.67,14.54-3.53,1.26-.5,2.55-1.18,3.52-2.1,2.36-2.21,4.66-4.52,6.77-6.97,1.11-1.28,1.78-2.94,2.66-4.46-.56-.26-.75-.43-.9-.41-.87.13-1.74.29-2.61.47-2.31.47-3.05-.3-2.42-2.64.29-1.08.73-2.13,1.1-3.19-.18-.17-.36-.33-.54-.5-2.45,1.15-4.97,2.16-7.32,3.49-2.48,1.4-4.86,3-7.15,4.7-2.12,1.57-4.05,3.39-6.07,5.1-.13-.15-.26-.3-.39-.45,4.27-4.82,8.07-10.15,13.7-13.57,2.59-1.57,5.37-2.99,8.25-3.85,1.96-.58,2.96-1.6,3.79-3.22ZM127.83,122.68c.59,2.06,1.54,3.93,1.58,5.83.07,2.69,1.52,4.45,3.2,6.02,1.86,1.73,3.95,3.28,6.13,4.57,4.21,2.48,8.89,3.74,13.68,4.48,4.4.68,8.8.99,12.99-1.17,1.21-.62,2.59-.94,3.9-1.35,1.72-.53,3.46-1.01,5.4-1.57-.94-1.38-1.69-2.53-2.49-3.64-1.68-2.31-3.44-4.55-5.06-6.9-5.64-8.15-13.15-13.15-23.23-13.74-1.37-.08-2.76.16-4.66.28,1.06,1.24,1.67,1.99,2.31,2.71,1.58,1.79,1.31,2.79-1.05,3.45-1.09.31-2.24.43-3.87.74,3.66,3.37,7.35,5.71,11.37,7.47,3.93,1.72,7.95,3.23,12.23,4.96-5.35-.27-15.31-2.55-19.42-4.76-2.84-1.53-5.64-3.29-8.05-5.41-1.53-1.35-2.93-2.1-4.97-1.96ZM138.27,85.96c-6.4.29-15.35,2.74-18.98,5.14-3.88,2.57-6.29,6.2-8.21,10.57,3.29-.37,6.31-.59,9.29-1.08,8.66-1.42,15.85-4.77,17.9-14.64ZM109.06,69.9c-.16.21-.42.41-.5.67-1.42,4.6-3.15,9.14-4.13,13.83-1.29,6.19.6,11.76,4.84,17.02,1.71-4.43,3.57-8.45,4.81-12.64,2.11-7.14,1.01-13.65-5.03-18.89ZM110.5,105.1c-1.37,3.15-2.76,5.98-3.84,8.92-3.01,8.18-3.46,15.99,4.02,22.6,1.8-3.87,2.98-7.9,4.06-11.95,1.89-7.13.51-13.58-4.24-19.56ZM81.29,120.86c3.71-.76,7.27-1.35,10.76-2.25,2.36-.61,4.7-1.49,6.89-2.56,4.68-2.31,7.48-6.3,9.63-11.47-4.69.72-9.01,1.11-13.19,2.09-7.35,1.72-12.5,5.95-14.09,14.19ZM107.7,102.87c-2.71-4.02-5.27-7.83-8.61-11.03-5.22-5.01-11.18-7.12-18.62-4.53,3.68,4.67,7.31,9.14,12.12,12.5,4.51,3.15,9.54,3.71,15.11,3.06ZM139.26,119.11c-4.57-5.48-8.71-11.11-15.24-14.21-3.81-1.81-7.86-1.78-12.16-1.37.92,1.29,1.62,2.34,2.41,3.33,2.02,2.53,3.9,5.21,6.17,7.51,5.13,5.22,11.21,7.36,18.83,4.73ZM102.55,116.96c-3.71,1.38-7.2,2.62-10.64,3.99-.63.25-1.22.97-1.52,1.62-1.03,2.23-2.05,4.47-2.83,6.8-.63,1.9-.9,3.93-1.32,5.9.19.14.38.27.58.41,3.44-1.83,6.94-3.57,10.29-5.55,1.12-.66,1.9-1.92,2.8-2.93,2.68-3.02,1.43-6.93,2.64-10.24ZM94.86,103.57c-1.46-.85-2.41-1.35-3.3-1.94-.98-.65-2.17-1.2-2.81-2.11-2.72-3.83-6.39-3.88-10.4-2.96-.86.2-1.76.23-2.61.47-1.86.54-3.7,1.16-5.88,1.85.69.64.99,1.03,1.38,1.27,3.07,1.93,6.12,3.9,9.27,5.69.97.55,2.24.57,3.39.77,4.01.7,6.94-2.07,10.95-3.04ZM133.52,70.77c-.95.29-1.43.35-1.83.56-3.12,1.65-6.29,3.24-9.32,5.05-1.04.62-1.76,1.79-2.6,2.73-2.67,3.02-1.52,6.92-2.69,10.33,3.82-1.43,7.38-2.71,10.89-4.11.54-.22,1.01-.9,1.27-1.48,1.01-2.24,2.05-4.48,2.83-6.8.64-1.91.92-3.93,1.44-6.29ZM93.64,66.51c-.27.87-.46,1.22-.48,1.57-.16,3.05-.45,6.1-.38,9.14.04,1.71.54,3.46,1.08,5.11,1.28,3.87,5.14,5.03,7.67,7.55.64-3.8,1.29-7.27,1.78-10.76.11-.77-.1-1.76-.53-2.4-1.38-2.03-2.84-4.04-4.46-5.88-1.33-1.5-2.94-2.75-4.68-4.34ZM149.99,107.15c-4.1-2.48-7.55-4.95-11.33-6.68-1.89-.87-4.47-.82-6.58-.41-2.31.45-4.45,1.8-6.56,2.71,2.94,2.43,5.84,4.85,8.77,7.22.35.28.9.51,1.33.46,4.66-.52,9.4-.73,14.37-3.3ZM126.47,139.95c.13-4.53.33-8.44.29-12.35-.01-1.21-.64-2.43-1.03-3.62-1.29-3.93-5.31-4.9-7.66-7.58-.62,3.75-1.2,7.22-1.74,10.69-.1.64-.24,1.51.08,1.95,2.72,3.83,5.29,7.83,10.05,10.91ZM93.17,44.97c-.74,2.69-.91,5.14-.43,7.62,1.85.13,3.49.24,5.41.37.11-1.53.22-2.96.31-4.3-1.83-1.28-3.49-2.44-5.3-3.7ZM169,117.77c-2.5-1.6-4.59-2.93-6.69-4.27-1.15,1.72-2.1,3.15-3.15,4.73,1.32.91,2.51,1.73,3.52,2.43,2.04-.93,3.82-1.74,6.32-2.88ZM152,59.18c-2.69,1.44-4.86,2.6-7,3.75.91,1.85,1.62,3.32,2.46,5.03,1.38-.63,2.68-1.22,3.91-1.78.2-2.2.38-4.22.63-6.99ZM126.55,161.49c.48-2.76.94-5.19.31-7.63-1.84-.15-3.47-.28-5.37-.43-.11,1.54-.22,2.97-.32,4.31,1.83,1.28,3.49,2.43,5.38,3.75ZM67.64,147.22c2.7-1.45,4.88-2.61,7.04-3.77-.99-1.9-1.78-3.42-2.62-5.04-1.41.69-2.63,1.29-3.78,1.85-.2,2.19-.39,4.22-.65,6.96ZM60.53,88.2c-1.37-.93-2.56-1.74-3.59-2.43-2.09.97-3.93,1.82-6.27,2.9,2.45,1.57,4.54,2.9,6.63,4.24,1.14-1.66,2.07-3.02,3.23-4.71ZM159.76,57.76c-2.76.41-4.99.29-6.72,1.69.44,2.01.83,3.78,1.26,5.72,1.22-.33,2.34-.62,3.39-.9.66-2.1,1.28-4.04,2.06-6.51ZM167.45,125.24c2.26-.53,4.29-1,6.84-1.6-1.79-1.99-3.19-3.55-4.63-5.15-1.68,1.53-3.1,2.81-4.62,4.19.81.86,1.54,1.63,2.41,2.56ZM100.08,42.29c-1.57-1.71-2.96-3.22-4.61-5-1.05,2.27-2.02,4.23-2.08,6.55,1.96.62,3.77,1.2,5.71,1.81.35-1.21.65-2.23.98-3.37ZM61.94,142.1c-.7,2.25-1.3,4.19-2.08,6.69,2.55-.54,4.68-.98,6.8-1.43-.46-2.2-.85-4-1.29-6.08-1.13.27-2.25.54-3.44.82ZM124.25,169.23c.87-2.56,2.17-4.44,1.87-6.69-1.97-.63-3.71-1.19-5.58-1.79-.34,1.2-.66,2.3-.97,3.36,1.49,1.63,2.87,3.14,4.68,5.12ZM52.1,81.21c-2.19.49-4.22.94-6.77,1.5,1.78,2.01,3.18,3.58,4.63,5.21,1.68-1.51,3.14-2.83,4.78-4.3-.94-.86-1.72-1.57-2.64-2.41ZM123.69,170.48c-1.97-1.43-3.58-2.6-5.42-3.93-.6,1.29-1.11,2.4-1.57,3.38,1.51,1.69,2.85,3.2,4.44,4.97.9-1.55,1.7-2.94,2.55-4.42ZM53.52,148.35c2.04.9,2.52.89,5.03-.05.21-1.93.41-3.84.65-6.09-1.42.15-2.62.28-3.71.4-.71,2.06-1.34,3.9-1.97,5.74ZM175,124.86c-2.13.93-3.98,1.74-6.08,2.67.84,1.16,1.6,2.22,2.19,3.04,2.28-.45,4.18-.82,6.51-1.27-.92-1.56-1.77-3.01-2.61-4.43ZM160.46,64.07c1.37-.07,2.59-.14,3.68-.2.73-2.16,1.37-4.07,2.06-6.13h-5.03c-.25,2.21-.46,4.12-.71,6.33ZM98.44,31.4c-.9,1.7-1.69,3.21-2.42,4.59,1.92,1.38,3.54,2.55,5.36,3.87.61-1.34,1.12-2.46,1.53-3.37-1.51-1.72-2.79-3.18-4.47-5.08ZM48.57,75.78c-2.31.51-4.26.94-6.57,1.46,1.01,1.6,1.9,3.01,2.73,4.31,2.16-.98,3.96-1.8,5.97-2.71-.79-1.13-1.44-2.07-2.13-3.06ZM64.23,95.78c.75-1.74,1.35-3.14,2.08-4.83-1.28-.47-2.44-.9-3.63-1.34-1.37,1.18-2.67,2.32-4.35,3.77,2.19.89,4.02,1.64,5.91,2.41ZM92.62,53.67c.44,2.51-.05,4.61,1.27,6.35,1.61-.22,3.05-.42,4.73-.65-.2-1.38-.38-2.6-.56-3.78-1.76-.62-3.31-1.17-5.44-1.92ZM121.58,150.84c1.82.6,3.41,1.13,5.51,1.83-.38-2.46-.69-4.4-.99-6.33-1.93.28-3.44.49-5.06.73.18,1.3.35,2.43.54,3.77ZM80.54,138.77c-1.14-1.44-2.09-2.65-3.14-3.98-1.08.91-2.03,1.7-2.91,2.44.35,1.88.65,3.49.99,5.29,2.12-.79,3.6-2.14,5.07-3.75ZM153.33,115.48c1.42.5,2.58.92,3.66,1.3,1.43-1.23,2.68-2.3,4.18-3.58-1.99-1.21-3.8-2.14-5.9-2.3-.66,1.55-1.23,2.89-1.94,4.59ZM142.24,71.65c1.11-.96,2.05-1.76,2.92-2.51-.34-1.84-.63-3.44-.98-5.31-2.15,1.01-3.83,2.14-4.98,3.92,1.01,1.29,1.9,2.44,3.04,3.9ZM107.92,179.31c-.7,1.43-1.28,2.63-1.83,3.75,1.44,2.18,2.75,4.15,4.06,6.12.51-.64.55-1.07.5-1.49-.17-1.44-.63-2.89-.52-4.3.14-1.81-.53-2.98-2.21-4.07ZM35.51,146.43c.16.1.32.19.48.29,1.63-1.16,3.18-2.48,4.93-3.41,1.54-.82,1.89-1.97,2.02-3.66-1.51.08-2.84.15-4.1.22-1.18,2.33-2.25,4.45-3.33,6.57ZM109.58,17.3c-.18.07-.36.14-.53.21.18,1.92.55,3.86.48,5.77-.06,1.81.66,2.85,2.19,3.77.67-1.33,1.24-2.46,1.83-3.66-1.34-2.06-2.65-4.08-3.97-6.09ZM52.82,142.91c-2.48.45-4.47,2.19-6.25,5.4,1.85.11,3.52.22,5.33.33.32-2.01.59-3.71.92-5.73ZM184.39,145.99c.03-.18.06-.36.09-.55-.46-.25-.9-.53-1.37-.74-1.25-.55-2.66-.87-3.74-1.64-1.49-1.07-2.83-1.11-4.53-.09.76,1.12,1.5,2.23,2.26,3.35,2.53-.12,4.91-.22,7.29-.33ZM179.91,135.85c.16-.22.33-.43.49-.65-.77-1.51-1.55-3.01-2.35-4.56-1.92.76-3.53,1.39-5.41,2.12,1.96,2.83,4.98,1.99,7.26,3.08ZM180.85,66.47c1.2-2.39,2.23-4.44,3.26-6.49-.77-.11-1.19.04-1.53.3-1.17.87-2.22,1.99-3.5,2.63-1.62.8-2.38,1.9-2.32,3.91,1.36-.12,2.7-.23,4.1-.35ZM46.96,73.71c-1.94-3.06-5.05-1.98-7.32-3.18-.15.16-.29.33-.44.49.78,1.59,1.56,3.19,2.32,4.76,1.94-.74,3.49-1.33,5.43-2.07ZM35.32,60.45c-.05.2-.1.4-.14.59.37.21.73.45,1.12.61,1.25.52,2.64.82,3.74,1.55,1.52,1.02,2.94,1.38,4.81.35-.8-1.19-1.59-2.36-2.32-3.45-2.57.12-4.89.23-7.21.34ZM103.05,26.14c-.21-.05-.43-.09-.64-.14-.98,1.39-1.96,2.78-3.02,4.29,1.61,1.3,3.02,2.45,4.62,3.75,1.52-3.17-.82-5.35-.96-7.9ZM102.85,173.54c-1.22-.9-2.28-1.68-3.42-2.52-1,1.25-1.82,2.28-2.76,3.45,1.28,1.15,2.4,2.15,3.62,3.26.94-1.55,1.69-2.78,2.56-4.2ZM179.17,74.2h-5.01c-.11,1.44-.22,2.72-.33,4.14,1.58.23,2.79.41,4.23.62.38-1.62.7-3,1.11-4.76ZM50.01,57.63c.88,1.62,1.6,2.94,2.42,4.43,1.44-.69,2.62-1.25,3.83-1.83-.57-1.45-1.02-2.61-1.56-4-1.54.46-2.98.88-4.69,1.39ZM116.53,180.22c.25.06.51.11.76.17.96-1.41,1.92-2.83,2.94-4.32-1.63-1.3-3.04-2.43-4.57-3.65-1.56,3.1.81,5.27.87,7.8ZM122.82,32.17c-1.07-1.24-2.06-2.38-3.27-3.8-1.1,1.8-1.89,3.08-2.78,4.53,1.27.89,2.33,1.64,3.46,2.43.98-1.2,1.76-2.16,2.59-3.17ZM164.93,150.17c1.55-.48,3.03-.93,4.68-1.43-.91-1.67-1.59-2.93-2.36-4.35-1.39.62-2.59,1.16-3.88,1.75.55,1.42,1,2.57,1.57,4.04ZM166.84,63.53c1.02-.24,1.94-.18,2.38-.61,1.4-1.37,2.62-2.91,4.3-4.83h-5.84c-.28,1.83-.53,3.44-.83,5.45ZM45.85,128.08c-1.66-.23-2.88-.4-4.28-.59-.38,1.57-.72,2.95-1.13,4.64,1.82.09,3.31.16,5.02.24.14-1.57.25-2.8.39-4.3ZM131.6,50.43c-.44-1.73-.84-3.3-1.28-5.02-1.39.78-2.45,1.38-3.6,2.03.49,1.44.93,2.71,1.39,4.07,1.25-.38,2.26-.69,3.5-1.07ZM145.5,144.85c-.31,1.28-.56,2.28-.86,3.55,1.64.5,3.18.96,4.96,1.5v-4.14c-1.36-.3-2.65-.59-4.09-.91ZM55.93,113.26c-1.02-.95-1.79-1.66-2.52-2.34-1.42,1.15-2.69,2.17-4.14,3.34,1.61.91,2.68,1.52,3.8,2.15.97-1.07,1.82-2.01,2.86-3.15ZM75.04,57.94c-1.77-.47-3.3-.87-4.99-1.32v3.98c.76.19,1.41.38,2.07.51.64.13,1.3.19,2.06.3.27-1.1.5-2.04.86-3.47ZM172.92,62.35c2.61.11,5.47-1.08,7.2-3.06-1.89-.32-3.67-.61-5.5-.92-.64,1.5-1.16,2.72-1.7,3.98ZM91.58,154.96c-1.23.34-2.22.62-3.3.93.07,1.85.23,3.51,1.37,4.96,1.14-.66,2.13-1.23,3.23-1.86-.44-1.36-.85-2.63-1.3-4.02ZM38.45,69.47c1.61-.16,3-.29,4.72-.46-1.64-2.58-3.77-3.84-6.66-5.21.73,2.14,1.26,3.69,1.93,5.67ZM61.3,55.57c-1.68.17-3.08.32-4.86.5.84,1.48,1.45,2.55,2.14,3.79,1.07-.06,2.1-.11,3.3-.18-.2-1.39-.36-2.53-.59-4.11ZM103.31,24.63c1.11,1.41,1.92,2.44,2.97,3.78,1.17-2.74,1.22-5.22,1.1-8.45-1.61,1.85-2.78,3.2-4.06,4.67ZM39.58,147.07c1.82.34,3.63.68,5.45,1.02.65-1.61,1.14-2.83,1.72-4.26-2.92.07-5.01,1.44-7.17,3.24ZM111.85,186.18c2.24-1.33,3.38-2.88,4.28-4.68-.92-1.15-1.75-2.18-3.07-3.82-.44,3.13-.79,5.57-1.21,8.5ZM166.38,95.65c1.42-1.25,2.58-2.28,3.91-3.45-1.47-.9-2.53-1.54-3.68-2.25-.98,1.09-1.89,2.09-2.88,3.18.91.87,1.67,1.6,2.65,2.52ZM97.92,169.17c-.68-.97-1.23-1.74-1.88-2.67-1.09.89-2.04,1.67-3.17,2.6.92,1.28,1.79,2.47,2.84,3.92.84-1.47,1.47-2.55,2.21-3.84ZM48.15,122.86c-1.47-.52-2.55-.9-3.89-1.38-.62,1.41-1.18,2.7-1.88,4.29h4.39c.45-.95.86-1.82,1.38-2.91ZM86.99,64.75c-1.35-1.1-2.6-2.11-4-3.26-.75,1.07-1.32,1.9-1.97,2.83,1.48.99,2.75,1.83,4.12,2.75.67-.84,1.2-1.5,1.85-2.32ZM65.07,103.75c-1.71.66-3.15,1.22-4.78,1.85.55,1.17.97,2.1,1.46,3.14,1.68-.86,3.06-1.58,4.48-2.31-.4-.92-.71-1.63-1.16-2.68ZM176.44,137.47c1.74,2.5,3.84,3.82,6.74,5.2-.87-2.35-1.52-4.11-2.13-5.78-1.68.21-2.93.37-4.6.58ZM151.84,150.31c1.46.16,2.92.33,4.47.5-.49-4.05-.7-4.26-4.04-4.3-.13,1.12-.26,2.26-.43,3.79ZM123.97,33.4c-.84,1.43-1.51,2.56-2.24,3.8.64.93,1.22,1.76,1.9,2.74,1.12-.94,2.05-1.72,3.14-2.63-.91-1.27-1.74-2.43-2.8-3.9ZM129.75,43.18c-.8-1.5-1.47-2.78-2.32-4.38-1.11,1.38-1.88,2.35-2.71,3.38.46.96.86,1.8,1.29,2.7,1.22-.55,2.25-1.03,3.74-1.7ZM62.86,55.53c.63,1.76,1.07,3.01,1.54,4.31h3.09c.07-1.31.12-2.45.19-3.83-1.48-.15-2.81-.28-4.83-.48ZM172.86,80.62c-.46,1-.85,1.85-1.34,2.91,1.36.48,2.5.88,3.87,1.37.65-1.46,1.22-2.75,1.89-4.28h-4.43ZM168.43,88c1.02.76,2.05,1.52,3.33,2.47.88-1.41,1.65-2.63,2.47-3.95q-3.9-1.2-5.8,1.48ZM90.57,147.62v-5.01c-.84-.1-1.66-.19-2.69-.31-.25,1.78-.46,3.34-.69,4.98,1.24.12,2.1.21,3.39.34ZM162.98,150.33q-1.95-4.16-5.22-3.19c.2,1.13.41,2.26.67,3.7,1.51-.17,2.91-.32,4.56-.51ZM93.63,161.48c-1.33.64-2.37,1.14-3.68,1.77.68,1.38,1.33,2.71,2.18,4.42,1.13-1.41,1.96-2.44,2.78-3.46-.46-.98-.82-1.76-1.28-2.74ZM132.66,141.67c1.38,1.1,2.63,2.1,3.99,3.19.76-1.06,1.31-1.82,1.99-2.76-1.44-.96-2.72-1.81-4.12-2.75-.66.83-1.19,1.48-1.86,2.32ZM138.71,145.72q2.38,1.46,4.27,1.68v-3.48c-1.09-.35-2.07-.67-3.18-1.03-.42,1.1-.76,1.98-1.09,2.83ZM131.73,64.11c.25-1.73.48-3.28.73-4.95-1.32-.14-2.24-.24-3.34-.36-.11,1.73-.21,3.25-.33,4.95,1.03.12,1.84.22,2.94.35ZM47.85,115.97c-.9,1.41-1.65,2.59-2.45,3.84,4.15,1.42,4.23,1.39,5.62-1.65-.94-.65-1.88-1.3-3.18-2.19ZM157.91,97.68c-1.65.82-3.01,1.49-4.53,2.25.44.99.78,1.74,1.21,2.71,1.63-.63,3.11-1.2,4.74-1.82-.52-1.15-.91-2-1.42-3.14ZM81.77,137.3c1.05-1.26,1.88-3.47,1.64-4.33-.09-.34-.34-.7-.61-.94-1.25-1.09-1.88-.85-3.24,1.19.69,1.28,1.38,2.55,2.21,4.08ZM153.38,110.4c-1.82-.85-3.07.16-4.36.71-1.03.44-.91,1.43-.65,2.28.43,1.39,1.61,1,2.5,1.13.85-1.4,1.6-2.63,2.51-4.12ZM97.6,65.74q2.55-1.48,1.3-3.79h-4.7c.39,2.1,2.12,2.65,3.4,3.79ZM90.56,149.11c-1.06.09-2.06.18-3.34.29.17,1.71.31,3.17.48,4.97,1.39-.82,2.37-1.4,3.4-2.01-.18-1.06-.33-2-.54-3.25ZM140.23,73.33c-.87-1.46-1.67-2.79-2.55-4.25-2.29,3.59-1.99,4.99,1.12,5.95.46-.54.94-1.12,1.43-1.7ZM81.03,60.62c-1.57-.83-2.77-1.78-4.35-1.78v3.7c1.1.34,2.08.64,3.11.95.45-1.04.79-1.84,1.24-2.87ZM68.74,91.87c-.86,1.48-1.62,2.79-2.75,4.74,1.59-.35,2.51-.49,3.39-.75,1.19-.35,2.19-.88,1.94-2.45-.23-1.5-1.28-1.51-2.58-1.54ZM125.26,144.41c.02-1.69-1.32-2.17-2.21-3-.94-.87-1.76-.56-2.61.11-1.28,1.01-.28,1.89.02,2.89h4.81ZM44.82,59.34c.69,1.04,1.2,1.86,1.76,2.64,1.16,1.59,1.17,1.58,3.31.37-.61-1.28-1.22-2.57-1.89-3.98-1.17.36-2.06.63-3.19.98ZM161.75,94.81c-.85.72-1.65,1.41-2.61,2.22.76.94,1.4,1.73,2.09,2.6,1.4-.99,2.57-1.81,3.98-2.8-1.36-.79-2.35-1.37-3.47-2.01ZM39.36,137.57c1.88-.13,3.31-.24,4.86-.35.17-.83.32-1.53.54-2.54-1.69-.11-3.17-.21-4.72-.31-.24,1.12-.41,1.94-.68,3.19ZM60.5,109.35c-.73-.89-1.33-1.62-2.08-2.54-1.32.95-2.53,1.82-3.98,2.87,1.4.75,2.41,1.29,3.52,1.89.87-.76,1.66-1.45,2.54-2.22ZM180.34,68.94q-4.96.12-5.23,2.7c1.41.17,2.82.35,4.39.54.3-1.15.54-2.07.84-3.24ZM171.51,147.92q1.94-.42,3-1.28-2.53-3.92-4.72-2.52c.55,1.22,1.11,2.45,1.72,3.8ZM104.55,175.32c-.93,1.32-1.76,2.49-2.68,3.8.82.76,1.56,1.45,2.34,2.17q2.47-4.08.35-5.97ZM132.4,56.88c-.16-1.75-.29-3.12-.45-4.83-1.41.84-2.38,1.41-3.47,2.06.25,1.12.47,2.12.73,3.29,1.08-.18,2-.32,3.19-.52ZM117.82,27.27c-.75-.78-1.5-1.56-2.48-2.57-.89,1.95-1.52,3.33-2.19,4.82.71.56,1.28,1.02,1.92,1.52.91-1.25,1.71-2.34,2.75-3.77ZM147.25,102.02c1.71.91,2.71,2.32,4.3,1.33.97-.61.64-1.65.09-2.73-1.34.43-2.59.83-4.39,1.41ZM71.8,104.64c-1.16-1.16-2.14-2.57-3.59-1.6-.53.36-.48,1.57-.82,2.86,1.86-.53,3.13-.9,4.41-1.27ZM90.98,141.34c.41-1.86.69-3.12,1.09-4.92-1.68.84-3.28.99-3.17,2.72.04.65,1.12,1.23,2.08,2.21ZM129.84,135.23c-.33,1.9-.8,3.39.7,4.14.55.27,1.6-.47,2.8-.88-1.3-1.21-2.2-2.05-3.51-3.26ZM127.65,69.48c1.64-.37,3.31-.55,3.16-2.36-.1-1.17-1.17-1.31-2.28-1.47-.32,1.41-.6,2.62-.88,3.83ZM89.96,71.35c.09-2.03.71-3.57-.89-4.35-1.02-.5-1.78.25-2.36,1.29.96.91,1.86,1.75,3.25,3.06ZM100.01,67.28c.35,1.07.75,2.06,2.44,2.62-.84-1.38-.72-2.79-2.44-2.62ZM117.43,136.98c.45.9.91,1.8,1.5,2.97q.79-1.66-1.5-2.97ZM136.87,77.17c-.28-.17-.56-.34-.84-.51-1.03.68-1.17,1.78-.77,3.16.54-.88,1.07-1.76,1.61-2.65ZM146.23,112.96c-1.4-.77-2.38-.67-3.69.41,1.43.2,2.46.68,3.69-.41ZM115.02,132.54q-.61,1.97,1.9,2.52c-.71-.94-1.25-1.65-1.9-2.52ZM87.21,122.14c-2.42.33-1.94,1.6-1.4,2.9.4-.83.8-1.65,1.4-2.9ZM138.17,113.19c.64,1.83,1.02,1.82,2.68-.12-.98.04-1.81.08-2.68.12ZM134.45,81.75c-.23-.1-.47-.2-.7-.3-.35.79-.69,1.57-1.2,2.72,2.25-.21,1.79-1.48,1.9-2.42ZM103.49,71.09c-.2.16-.4.32-.61.48.56.73,1.11,1.46,1.89,2.47.92-2.17-.55-2.32-1.28-2.94ZM82.23,92.95c-1.85-1.7-2.55-.78-3.21.45.88-.12,1.76-.25,3.21-.45ZM73.74,93.04c0,.23.01.46.02.69,1.1.66,2.05.29,3.21-.69h-3.23ZM84.61,126.92c-.71.74-1.85,1.32-1.44,2.87,1.56-.54,1.43-1.74,1.44-2.87Z"/>
      <path class="cls-1" d="M167.25,104.26c3.63,0,6.75.11,9.87-.02,5.24-.23,9.27,2.2,12.81,5.67,1.33,1.3,2.4,2.86,3.6,4.3,2.48,2.97,5.1,5.76,9.04,6.8.34.09.6.46.87.67.05,1.43-1,1.67-1.93,1.91-3.04.8-6.07,1.71-9.16,2.26-6.12,1.09-11.14-1.49-15.66-5.27-.64-.53-1.03-1.43-1.36-2.23-.48-1.18-.82-2.42-1.2-3.63-1.1-3.49-2.14-7-5.85-8.78-.41-.2-.57-.9-1.02-1.66ZM197.77,121.9c-2.99-3.45-5.84-7.08-9.04-10.37-4.82-4.96-8.91-5.87-15.06-5.09,1.38,3.17,2.86,6.37,4.15,9.64.73,1.85,2.01,3.04,3.58,4.15,5.27,3.71,10.84,3.43,16.36,1.67Z"/>
      <path class="cls-1" d="M46.37,175.53c0-1.52-.18-2.47.03-3.31.73-2.86,1.49-5.72,2.43-8.52,2.03-6.06,6.84-9.17,12.47-11.25.94-.35,2.15-.16,3.19,0,2.14.34,4.26.77,6.36,1.28,2.32.56,4.47.27,6.57-.86.7-.37,1.54-.48,2.92-.88-2.5,5.13-4.7,9.71-8.44,13.18-2.95,2.73-6.68,4.08-10.69,4.63-2.24.31-4.52.59-6.65,1.3-2.01.67-3.85,1.87-5.75,2.87-.64.34-1.24.78-2.44,1.55ZM49.43,170.12c4.38-.88,8.4-1.8,12.46-2.47,6.63-1.08,10.85-4.97,13.44-10.79-2.99-.33-5.91-.53-8.8-.98-5.33-.84-11.99,2.32-14.35,7.15-1.11,2.27-1.84,4.72-2.75,7.09Z"/>
      <path class="cls-1" d="M79.13,11.9c1.32.95,2.14,1.41,2.79,2.04,1.9,1.86,3.74,3.78,5.58,5.7,4.55,4.74,4.83,10.55,4.04,16.58-.11.83-.62,1.67-1.13,2.36-.82,1.1-1.79,2.09-2.72,3.11-2.46,2.71-5.03,5.33-4.74,9.45.04.51-.55,1.07-1.07,1.99-2.05-3.72-4.01-6.97-5.68-10.37-2.06-4.2-1.82-8.6-.42-12.95.78-2.43,1.77-4.8,2.57-7.23.87-2.65,1.38-5.34.61-8.13-.14-.51.06-1.12.18-2.56ZM82.05,17.43c-.28.26-.52.38-.54.52-.54,4.25-2.28,8.12-3.72,12.1-2.16,6.02-.9,11.56,2.82,16.39,1.81-2.45,3.56-4.93,5.43-7.32,3.27-4.2,3.77-11.37.82-15.75-1.41-2.1-3.19-3.96-4.8-5.94Z"/>
      <path class="cls-1" d="M52.56,102.18c-3.73,0-6.86-.07-9.99.02-5.69.16-9.99-2.53-13.64-6.53-1.53-1.67-2.85-3.52-4.36-5.21-1.99-2.23-4.23-4.13-7.21-4.94-.43-.12-.79-.5-1.14-.72-.08-1.32.76-1.66,1.63-1.87,3.25-.82,6.47-1.78,9.76-2.35,5.91-1.03,10.82,1.45,15.13,5.14,1.1.94,1.6,2.66,2.21,4.08.5,1.17.79,2.43,1.14,3.66.84,2.94,2.25,5.42,5.08,6.94.52.28.79,1,1.39,1.8ZM46.08,100.13c-1.48-3.36-2.92-6.77-4.49-10.12-.48-1.03-1.15-2.11-2.02-2.82-5.43-4.49-11.48-4.86-17.79-2.59,2.32,2.55,4.88,4.9,6.88,7.65,4.39,6.05,10.1,8.77,17.41,7.88Z"/>
      <path class="cls-1" d="M137.69,153.12c2.08,3.78,4.02,7.04,5.7,10.43,2.23,4.5,1.82,9.15.26,13.76-.78,2.33-1.75,4.59-2.49,6.93-.78,2.45-1.18,4.96-.51,7.55.15.56-.19,1.25-.31,1.88-.69-.2-1.58-.19-2.02-.63-2.57-2.57-5.28-5.06-7.48-7.93-3.55-4.62-3.55-10.04-2.57-15.5.13-.73.66-1.43,1.14-2.03.86-1.07,1.83-2.05,2.75-3.07,2.39-2.64,4.79-5.26,4.52-9.22-.02-.33.24-.69.4-1.03.12-.27.28-.53.6-1.14ZM137.54,188.9c1.54-4.44,3.04-8.58,4.42-12.76,1.99-6.02.68-11.43-2.92-16.19-1.85,2.5-3.6,4.97-5.46,7.35-3.31,4.26-3.71,11.59-.64,15.96,1.4,1.99,3.07,3.78,4.59,5.63Z"/>
      <path class="cls-1" d="M173.39,31.05c0,1.33.15,2.04-.02,2.65-.95,3.41-1.69,6.92-3.04,10.17-2.27,5.48-6.89,8.49-12.37,10.1-1.48.43-3.28-.19-4.93-.42-.97-.14-1.91-.46-2.87-.68-2.95-.67-5.82-.8-8.53.96-.49.32-1.36.05-2.43.05,1.88-3.04,3.66-5.61,5.12-8.36,2.81-5.26,7.51-7.57,13.01-8.71,2.31-.48,4.66-.77,6.97-1.26,2.54-.54,4.87-1.53,6.82-3.34.45-.41,1.12-.59,2.27-1.17ZM144.16,49.51c3.57.4,6.91.65,10.19,1.19,2.39.4,4.48-.03,6.48-1.28.92-.58,1.85-1.13,2.76-1.72,4.18-2.77,5.12-7.27,6.47-11.36-4.03.79-7.9,1.43-11.7,2.35-2.36.57-4.68,1.45-6.91,2.41-3.7,1.59-5.17,5.21-7.28,8.41Z"/>
      <path class="cls-1" d="M93.9,185.21c.04,3.12-1.06,5.79-3.02,8.13-1.12,1.33-2.36,1.35-2.94-.2-.92-2.46-2.89-3.95-4.64-5.61-2.61-2.46-4.81-5.22-6.36-8.42-1.87-3.84-2.88-7.78.25-11.6.39-.48.35-1.29.59-1.91.46-1.17,1.75-1.47,2.21-.43,1.59,3.56,4.97,5.19,7.72,7.49,3.94,3.3,5.78,7.57,6.19,12.55ZM90.39,190.42c.43-1.21.82-1.89.91-2.61.63-5.28-1.09-9.67-5.16-13.1-2.03-1.71-4.11-3.35-6.18-5.01-.48-.39-1-.74-1.51-1.12-.98,2.08-.87,3.95-.36,5.94.71,2.75,2.06,5.15,3.87,7.21,2.51,2.87,5.31,5.49,8.44,8.69Z"/>
      <path class="cls-1" d="M44.04,39.67c1.98-.51,3.99-.92,5.94-1.55,3.61-1.17,7.32-1.67,11.06-1.32,4.02.38,7.75,1.54,9.4,5.9.22.58.96.95,1.29,1.51.26.45.43,1.1.3,1.56-.08.31-.79.69-1.17.64-3.57-.49-6.45,1.47-9.5,2.67-4.36,1.72-8.64,1.7-12.94.08-3.39-1.28-5.75-3.65-7.03-7.1-.8-2.15-.31-2.9,2-2.79.19,0,.39.06.58.1.02.1.05.19.07.29ZM68.93,43.37c-2.17-3-5.2-3.58-8.4-3.82-5.66-.44-10.76,1.79-16.49,3.38.87.93,1.41,1.76,2.15,2.27,4.06,2.81,8.49,3.54,13.18,1.88,3.14-1.11,6.22-2.4,9.56-3.7Z"/>
      <path class="cls-1" d="M144.5,34.34c-.25.75-.6,1.96-1.07,3.13-.46,1.15-1.05,2.25-1.57,3.38-.53,1.16-1.79,1.45-2.25.39-1.5-3.51-4.83-5.06-7.47-7.34-4.83-4.16-7.28-9.29-5.97-15.66.4-1.92,1.7-3.71,2.81-5.41.78-1.18,2.02-1.1,2.55.19,1.21,2.98,3.8,4.69,5.85,6.91,3.36,3.65,6.4,7.51,6.92,12.72.04.39.09.78.19,1.7ZM141.2,37.86c1.57-3.5.44-6.51-1.01-9.45-2.46-4.99-6.93-8.19-10.89-12.22-.36.79-.76,1.35-.87,1.96-.93,5.06.66,9.4,4.31,12.85,2.55,2.42,5.47,4.46,8.47,6.85Z"/>
      <path class="cls-1" d="M174.86,166.95c-1.31.34-3.46,1.06-5.66,1.43-3.37.57-6.78,1.19-10.19,1.25-3.07.06-6.06-.95-8.23-3.33-1.22-1.34-2.16-2.95-3.16-4.48-.55-.86.02-1.99,1.05-1.84,3.69.51,6.64-1.52,9.8-2.72,4.37-1.67,8.67-1.61,12.93.07,3.03,1.19,5.28,3.3,6.58,6.4,1.24,2.94.96,3.44-3.13,3.24ZM175.77,163.61c-1.05-1.09-1.6-1.89-2.35-2.42-3.75-2.66-7.95-3.42-12.31-2.1-3.52,1.06-6.88,2.61-10.4,3.97,1.18,1.64,2.66,2.59,4.53,3.16,2.9.88,5.83,1,8.73.39,3.73-.78,7.39-1.86,11.8-3Z"/>
      <path class="cls-1" d="M24.61,132.04c-.1,0-.2-.02-.29-.02-4.26-.2-4.26-.38-2.38-4.27.93-1.91,1.23-4.12,1.83-6.19,1.45-4.96,3.29-9.66,7.66-12.92,1.41-1.05,2.9-1.57,4.62-1.66,1.24-.06,2.49-.2,3.73-.32,1.27-.12,2.16.8,1.47,1.73-2.33,3.14-1.98,6.91-2.67,10.42-1.11,5.69-4.1,9.94-9.4,12.37-1.39.63-3,.78-4.51,1.14-.02-.09-.05-.18-.07-.28ZM24.69,130.02c1.46-.37,2.53-.47,3.44-.9,3.88-1.83,6.49-4.91,7.52-9,.93-3.67,1.28-7.49,1.88-11.25-.33-.05-.53-.13-.7-.1-3.3.59-5.24,2.92-6.96,5.5-3.03,4.55-3.63,9.92-5.18,15.74Z"/>
      <path class="cls-1" d="M181.89,99.34c-.22.05-1.05.31-1.89.37-.51.03-1.17-.13-1.53-.46-.24-.22-.25-1.03-.03-1.33,2.35-3.12,1.95-6.92,2.63-10.44,1.02-5.24,3.76-9.19,8.4-11.83,2.52-1.44,5.23-1.54,8-1.07,1.57.26,2.16,1.24,1.22,2.48-1.82,2.39-2.03,5.26-2.86,7.95-1.44,4.73-3.16,9.28-7.3,12.49-1.82,1.41-3.72,2.13-6.66,1.83ZM194.95,76.23c-6.05,1.35-9.45,4.84-10.92,9.96-1.06,3.7-1.33,7.63-1.96,11.53,3.64-.82,5.72-2.46,7.74-5.61,2.98-4.68,3.64-10.06,5.14-15.87Z"/>
      <path class="cls-1" d="M153.59,171.03c2.97,2.43,6.15,4.7,7.72,8.45.81,1.93,1.07,3.98.41,6.07-.41,1.31-.76,2.65-1.1,3.98-.82,3.23-1.9,6.43-1.16,9.87.11.51-.41,1.16-.63,1.75-.52-.2-1.14-.29-1.54-.63-1.74-1.44-3.46-2.92-5.12-4.45-3.53-3.26-4.22-7.22-2.01-11.5.81-1.57,1.73-3.08,2.58-4.63,1-1.83,1.08-3.74.55-5.73-.24-.91-.34-1.85-.51-2.77.27-.13.54-.27.81-.4ZM156.58,196.46c.54-2.43.96-4.45,1.44-6.45.46-1.91,1.11-3.78,1.45-5.71.55-3.05-.66-5.53-2.92-6.88-1.3,2.59-2.69,5.15-3.87,7.82-.61,1.4-1.16,2.97-1.16,4.46,0,3.25,2.54,4.81,5.05,6.76Z"/>
      <path class="cls-1" d="M146.74,31.32c.35-3.39.97-6.75,2.63-9.78,1.16-2.12,3.02-3.63,5.4-4.33,1.7-.5,3.43-.85,5.13-1.34,3.02-.87,6.1-1.61,8.5-3.88.32-.3.85-.4,1.71-.78.1.96.33,1.68.23,2.34-.34,2.13-.76,4.25-1.22,6.36-1.07,4.92-4.23,7.51-9.39,7.72-.78.03-1.57-.1-2.35-.11-3.12-.03-6.09.31-8.26,2.99-.44.55-1.18.85-1.79,1.26-.19-.15-.39-.31-.58-.46ZM150.4,25.67c3.11-.22,5.92-.55,8.72-.58,5.53-.07,8.33-3.22,7.67-8.78-3.57,1.01-7.15,2-10.72,3.02-3.24.93-5.06,3.12-5.67,6.34Z"/>
      <path class="cls-1" d="M0,96.73c.91-.54,1.36-.92,1.87-1.1,2.03-.73,4.08-1.42,6.14-2.1,4.7-1.54,8.53-.19,11.2,3.97.95,1.49,1.81,3.03,2.73,4.54,1.08,1.78,2.68,2.81,4.68,3.32.89.22,1.73.64,3.1,1.17-.95.65-1.33,1.06-1.8,1.21-2.15.66-4.3,1.33-6.5,1.83-3.3.74-6.23-.19-8.72-2.43-1.1-.98-2.07-2.1-3.12-3.14-2.37-2.35-4.64-4.84-7.98-5.89-.48-.15-.84-.7-1.6-1.37ZM5.76,96.99c3.08,3,5.82,5.79,8.7,8.44,2.38,2.2,5.18,2.31,8.31,1.29-1.15-1.29-2.21-2.31-3.05-3.49-.91-1.27-1.6-2.7-2.4-4.04-2.16-3.59-4.72-4.55-8.75-3.28-.83.26-1.62.62-2.81,1.07Z"/>
      <path class="cls-1" d="M49.06,195.03c.97-4.72.75-9.24,3.48-12.96,1.45-1.97,3.58-3.05,6.08-3.18,1.57-.08,3.14-.03,4.71-.02,2.77,0,5.23-.66,7.11-2.89.47-.56,1.18-.91,1.72-1.32.33.26.61.38.6.49-.14,3.35-.85,6.61-2.4,9.57-1.17,2.24-3.12,3.78-5.58,4.54-1.41.43-2.84.77-4.27,1.14-3.23.85-6.49,1.57-9.11,3.88-.43.38-1.19.4-2.34.76ZM69.28,180.78c-3.16.17-6.06.4-8.96.47-4.1.09-6.5,1.87-7.41,5.79-.23,1-.28,2.04-.42,3.17,3.77-1.06,7.25-2.09,10.75-3.02,3.41-.91,5.3-3.14,6.05-6.4Z"/>
      <path class="cls-1" d="M65.9,35.57c-2.14-2.14-4.36-4.07-6.23-6.29-1.93-2.29-2.52-5.09-1.84-8.06.42-1.82,1.04-3.59,1.48-5.41.68-2.86,1.6-5.69.84-8.72-.13-.51.26-1.3.65-1.72.16-.17,1.1.16,1.5.49,1.82,1.5,3.63,3.03,5.34,4.65,3.36,3.19,3.98,7.11,1.84,11.28-.76,1.48-1.67,2.89-2.46,4.36-1.07,1.99-1.35,4.07-.62,6.27.28.86.91,1.83-.5,3.13ZM62.91,29.33c1.45-2.9,2.68-5.56,4.08-8.12,2.53-4.62,1.01-8.81-3.94-10.78-.89,3.51-1.75,7.04-2.7,10.55-.92,3.42.17,6.13,2.55,8.35Z"/>
      <path class="cls-1" d="M190.36,98.98c3.02-.82,5.81-1.78,8.68-2.28,2.96-.51,5.66.53,7.88,2.57,1.37,1.27,2.59,2.7,3.95,3.99,2.07,1.97,4.06,4.03,6.9,4.96.53.17.9.88,1.34,1.34-.48.41-.89.98-1.45,1.2-2.02.79-4.06,1.51-6.13,2.16-4.88,1.53-8.66.06-11.34-4.36-.87-1.43-1.7-2.88-2.58-4.3-1.04-1.68-2.53-2.67-4.46-3.16-.96-.24-2.22-.18-2.79-2.12ZM213.78,109.32c-2.82-2.76-5.51-5.47-8.29-8.08-2.6-2.44-5.3-2.79-8.25-1.36,1.33,1.75,2.72,3.51,4.01,5.33.73,1.04,1.21,2.25,1.95,3.28,1.15,1.59,2.74,2.58,4.75,2.51,2.05-.06,4.01-.56,5.82-1.68Z"/>
    </g>
  </g>
</svg>